<svg id="Layer_1" enable-background="new 0 0 338.125 282.546" height="512" viewBox="0 0 338.125 282.546" width="512" xmlns="http://www.w3.org/2000/svg"><g><path d="m228.958 132.61c-2.388-5.323-6.988-14.051-14.118-21.662-5.998-6.403-13.784-12.017-23.578-14.133-.314-.127-.642-.226-.975-.311-4.576 6.858-12.38 11.386-21.224 11.386s-16.649-4.528-21.224-11.386c-.333.086-.661.185-.976.312-11.704 2.529-20.545 10.048-26.885 17.948-5.271 6.568-8.815 13.398-10.811 17.847l-27.292 2.686v16.078l33.658-3.313c.141-.014.278-.041.416-.062.016-.003.033-.005.049-.007 1.659-.262 3.128-1.019 4.269-2.109.008-.008.017-.015.025-.023.279-.269.537-.558.774-.863.031-.039.06-.08.09-.12.469-.628.845-1.324 1.114-2.069.011-.031.029-.059.04-.09.079-.225 6.621-18.557 19.707-26.824v15.133 33.562l-8.53 104.59c-.555 6.807 4.514 12.773 11.318 13.327 6.805.554 12.773-4.51 13.328-11.317l7.429-91.084h7.002l7.429 91.084c.555 6.808 6.523 11.872 13.328 11.317s11.873-6.52 11.318-13.327l-8.53-104.591v-34.944-13.751c13.085 8.266 19.627 26.597 19.701 26.809.01.03.027.056.038.086.132.369.284.73.468 1.073.005.01.01.021.015.032.174.322.376.627.591.921.055.075.108.149.165.222.214.273.443.532.691.775.055.054.113.103.169.155.234.217.48.42.739.608.044.032.085.066.129.097.297.206.61.39.935.556.058.03.117.057.176.085.317.152.643.287.982.397.019.006.037.014.056.021.337.106.686.185 1.042.246.099.017.198.031.298.045.096.013.189.033.286.043l33.658 3.313v-16.078z"/><path d="m131.773 99.933c4.205-2.692 8.929-4.824 14.222-5.999.097-.036.197-.062.294-.095-.784-1.552-1.415-3.193-1.871-4.906h-62.543v11z"/><path d="m78.875 0h-7.471-3.529v137.683c-2.314 1.599-3.715 4.37-3.42 7.367.24 2.436 1.553 4.503 3.42 5.793v73.901h-18.625v-19.667c0-2.2-1.8-4-4-4h-5.667c-1.923 0-3.54 1.375-3.917 3.191-.377-1.816-1.994-3.191-3.917-3.191h-5.667c-1.923 0-3.54 1.375-3.917 3.191-.377-1.816-1.994-3.191-3.917-3.191h-5.667c-2.2 0-4 1.8-4 4v19.667h-8.581v6h8.583v19.667c0 2.2 1.8 4 4 4h5.667c1.923 0 3.54-1.375 3.917-3.191.377 1.816 1.994 3.191 3.917 3.191h5.667c1.923 0 3.54-1.375 3.917-3.191.377 1.816 1.994 3.191 3.917 3.191h5.667c2.2 0 4-1.8 4-4v-19.667h18.625v14.256h-12.75v36.5h36.5v-36.5h-9.75-3v-245z"/><path d="m192.129 93.934c5.294 1.176 10.022 3.306 14.227 5.999h49.894v-11h-62.543c-.455 1.713-1.087 3.354-1.871 4.906.098.033.197.059.293.095z"/><path d="m259.25 245h-3-9.75v36.5h36.5v-36.5h-12.75v-14.255h18.625v19.667c0 2.2 1.8 4 4 4h5.667c1.923 0 3.54-1.375 3.917-3.191.377 1.816 1.994 3.191 3.917 3.191h5.667c1.923 0 3.54-1.375 3.917-3.191.377 1.816 1.994 3.191 3.917 3.191h5.667c2.2 0 4-1.8 4-4v-19.667h8.583v-6h-8.583v-19.667c0-2.2-1.8-4-4-4h-5.667c-1.923 0-3.54 1.375-3.917 3.191-.377-1.816-1.994-3.191-3.917-3.191h-5.667c-1.923 0-3.54 1.375-3.917 3.191-.377-1.816-1.994-3.191-3.917-3.191h-5.667c-2.2 0-4 1.8-4 4v19.667h-18.625v-73.902c1.867-1.291 3.18-3.357 3.42-5.793.295-2.997-1.106-5.767-3.42-7.367v-137.683h-2.846-8.154z"/><circle cx="169.062" cy="82.389" r="22.5"/></g></svg>