<svg id="Capa_1" enable-background="new 0 0 512 512" height="512" viewBox="0 0 512 512" width="512" xmlns="http://www.w3.org/2000/svg"><g><path d="m196 181.25c-53.762 0-97.5 43.738-97.5 97.5 0 4.143 3.358 7.5 7.5 7.5s7.5-3.357 7.5-7.5c0-45.49 37.009-82.5 82.5-82.5h60v-15z" fill="#ffe2a8"/><path d="m406 91.25c-4.142 0-7.5 3.357-7.5 7.5 0 45.49-37.009 82.5-82.5 82.5h-60v15h60c53.762 0 97.5-43.738 97.5-97.5 0-4.143-3.358-7.5-7.5-7.5z" fill="#ffcb63"/><path d="m218.5 288.75v196.592l-24.87 8.29c-3.93 1.31-6.053 5.557-4.744 9.487 1.31 3.93 5.559 6.054 9.487 4.744l29.998-10c3.063-1.021 5.128-3.887 5.128-7.115v-201.998z" fill="#ffe2a8"/><path d="m293.5 288.75v196.592l24.87 8.29c3.93 1.31 6.053 5.557 4.744 9.487-1.31 3.93-5.559 6.054-9.487 4.744l-29.998-10c-3.063-1.021-5.128-3.887-5.128-7.115v-201.998z" fill="#ffcb63"/><path d="m504.5 418.25h-23.5v15h23.5c4.143 0 7.5-3.358 7.5-7.5s-3.357-7.5-7.5-7.5z" fill="#808080"/><path d="m7.5 418.25c-4.143 0-7.5 3.358-7.5 7.5s3.357 7.5 7.5 7.5h443.5v-15z" fill="#999"/><path d="m16 425.75v30c0 8.284 6.716 15 15 15s15-6.716 15-15l15-30z" fill="#ffa754"/><path d="m46 395.75c0-8.284-6.716-15-15-15s-15 6.716-15 15v30c0 8.284 6.716 15 15 15s15-6.716 15-15h15z" fill="#ffcb63"/><path d="m46 455.75v30c0 8.284 6.716 15 15 15s15-6.716 15-15l15-30z" fill="#4f4f4f"/><path d="m76 365.75c0-8.284-6.716-15-15-15s-15 6.716-15 15v90c0 8.284 6.716 15 15 15s15-6.716 15-15h15z" fill="#696969"/><path d="m76 455.75v30c0 8.284 6.716 15 15 15s15-6.716 15-15v-30z" fill="#eb1b00"/><path d="m91 350.75c-8.284 0-15 6.716-15 15v90c0 8.284 6.716 15 15 15s15-6.716 15-15v-90c0-8.284-6.716-15-15-15z" fill="#ff4128"/><path d="m496 425.75v30c0 8.284-6.716 15-15 15s-15-6.716-15-15l-15-30z" fill="#ffa754"/><path d="m466 395.75c0-8.284 6.716-15 15-15s15 6.716 15 15v30c0 8.284-6.716 15-15 15s-15-6.716-15-15h-15z" fill="#ffcb63"/><path d="m466 455.75v30c0 8.284-6.716 15-15 15s-15-6.716-15-15l-15-30z" fill="#4f4f4f"/><path d="m436 365.75c0-8.284 6.716-15 15-15s15 6.716 15 15v90c0 8.284-6.716 15-15 15s-15-6.716-15-15h-15z" fill="#696969"/><path d="m436 455.75v30c0 8.284-6.716 15-15 15s-15-6.716-15-15v-30z" fill="#eb1b00"/><path d="m421 350.75c8.284 0 15 6.716 15 15v90c0 8.284-6.716 15-15 15s-15-6.716-15-15v-90c0-8.284 6.716-15 15-15z" fill="#ff4128"/><path d="m256 48.75c24.853 0 45-20.147 45-45-24.853 0-45 20.147-45 45z" fill="#4f4f4f"/><path d="m211 3.75c0 24.853 20.147 45 45 45 0-24.853-20.147-45-45-45z" fill="#696969"/><path d="m256 48.75v90c24.853 0 45-20.147 45-45s-20.147-45-45-45z" fill="#ffcb63"/><path d="m271 93.75c0-24.853-6.716-45-15-45-24.853 0-45 20.147-45 45s20.147 45 45 45c8.284 0 15-20.147 15-45z" fill="#ffe2a8"/><path d="m296 168.75h-10s-45 75-45 75 60 0 60-.031c8.964-4.993 15-14.315 15-25v-29.969c0-11.046-8.954-20-20-20z" fill="#ffcb63"/><path d="m226 168.75h-10c-11.046 0-20 8.954-20 20v29.969c0 10.685 6.036 20.007 15 25 0 .031 60 .031 60 .031z" fill="#ffe2a8"/><path d="m301 288.75v-45c-8.284 0-15-6.716-15-15v-10.57h-45l15 115.57c24.853 0 45-20.147 45-45z" fill="#353535"/><path d="m226 168.75v45l30.043 30 29.957-30v-45z" fill="#ff4128"/><path d="m226 213.75v15c0 8.284-6.716 15-15 15v45c0 24.853 20.147 45 45 45 8.284 0 15-20.147 15-45v-45c8.964-4.993 15-14.315 15-25v-5l-30 15z" fill="#4f4f4f"/></g></svg>