<svg id="Layer_1" enable-background="new 0 0 358.935 236.991" height="512" viewBox="0 0 358.935 236.991" width="512" xmlns="http://www.w3.org/2000/svg"><g><circle cx="179.467" cy="22.5" r="22.5"/><path d="m143.891 223.622c-.555 6.807 4.514 12.773 11.318 13.327 6.805.554 12.773-4.51 13.328-11.317l6.516-79.89c-8.281.032-16.561.154-24.84.367z"/><path d="m190.397 225.632c.555 6.808 6.523 11.872 13.328 11.317s11.873-6.52 11.318-13.327l-6.322-77.513c-8.279-.213-16.56-.335-24.84-.367z"/><path d="m9.876 153.254c.266 1.681.533 3.363.799 5.044l4.5 28.413c.346 2.173 2.416 3.666 4.602 3.329 1.656-.256 3.314-.508 4.972-.756 2.132-.319 3.625-2.267 3.411-4.381.395 2.088 2.384 3.529 4.518 3.227 1.659-.235 3.319-.466 4.979-.693 2.134-.292 3.652-2.221 3.463-4.338.369 2.093 2.339 3.558 4.476 3.283 1.662-.214 3.324-.425 4.986-.631 2.137-.265 3.679-2.175 3.516-4.294.343 2.097 2.294 3.587 4.433 3.338 1.663-.194 3.327-.383 4.991-.569 2.14-.239 3.704-2.129 3.567-4.249.318 2.101 2.248 3.615 4.39 3.393 1.665-.173 3.331-.342 4.996-.506 2.143-.212 3.731-2.083 3.619-4.205.291 2.105 2.203 3.643 4.345 3.448 1.667-.152 3.334-.3 5.001-.444 2.198-.19 3.855-2.132 3.673-4.324-.774-9.385-1.549-18.77-2.323-28.155-.141-1.712-.282-3.423-.424-5.135 13.438-1.055 26.886-1.86 40.341-2.437 1.239 2.852 4.076 4.815 7.325 4.815.157 0 .316-.004.475-.014 3.325-.194 6.054-2.394 7.087-5.353 22.579-.672 45.17-.672 67.749 0 1.033 2.96 3.762 5.159 7.087 5.353.159.009.317.014.475.014 3.249 0 6.085-1.963 7.325-4.815 13.454.577 26.903 1.382 40.341 2.436-.141 1.712-.282 3.423-.424 5.135-.774 9.385-1.549 18.77-2.323 28.155-.18 2.193 1.475 4.134 3.672 4.324 1.667.144 3.334.292 5.001.444 2.145.195 4.055-1.343 4.346-3.448-.108 2.122 1.477 3.993 3.619 4.205 1.666.165 3.331.334 4.996.506 2.142.222 4.073-1.293 4.39-3.395-.138 2.121 1.428 4.013 3.567 4.251 1.665.186 3.329.375 4.991.569 2.141.249 4.09-1.243 4.433-3.341-.168 2.12 1.38 4.032 3.516 4.297 1.662.206 3.324.417 4.985.631 2.133.275 4.107-1.189 4.475-3.281-.188 2.116 1.332 4.044 3.463 4.336 1.66.227 3.321.458 4.979.693 2.133.302 4.124-1.139 4.518-3.227-.215 2.114 1.276 4.063 3.411 4.382 1.658.248 3.314.5 4.973.756 2.185.337 4.255-1.156 4.602-3.329 1.5-9.471 3-18.942 4.5-28.413.266-1.681.533-3.363.799-5.044 2.98.448 5.96.899 8.938 1.371l.14-.882.799-5.044c-2.978-.472-5.958-.923-8.937-1.371 1.571-9.918 3.142-19.837 4.713-29.755.346-2.172-1.296-4.256-3.647-4.619-1.781-.275-3.562-.546-5.344-.812-2.292-.343-4.412 1.081-4.812 3.169.213-2.115-1.411-4.084-3.708-4.41-1.783-.253-3.566-.501-5.351-.745-2.297-.314-4.395 1.135-4.77 3.227.185-2.117-1.462-4.065-3.761-4.361-1.786-.23-3.571-.456-5.357-.678-2.298-.286-4.383 1.191-4.728 3.289.159-2.12-1.51-4.048-3.813-4.316-1.788-.208-3.576-.412-5.363-.611-2.3-.257-4.364 1.245-4.685 3.346.133-2.121-1.561-4.027-3.865-4.266-1.789-.186-3.578-.367-5.369-.544-2.307-.228-4.345 1.299-4.641 3.404.108-2.122-1.61-4.007-3.917-4.217-1.792-.163-3.583-.322-5.374-.477-2.367-.205-4.449 1.431-4.629 3.623-.838 10.164-1.677 20.329-2.515 30.493-13.326-1.046-26.664-1.847-40.006-2.426 2.016-40.41-3.32-66.874-15.879-78.674-5.602-5.265-11.076-6.176-13.895-6.245-.165-.01-.329-.025-.497-.025h-38.637c-.171 0-.339.015-.507.026-2.822.071-8.289.985-13.886 6.244-12.558 11.8-17.894 38.264-15.878 78.675-13.343.579-26.68 1.38-40.006 2.426-.839-10.164-1.677-20.329-2.516-30.493-.181-2.193-2.262-3.828-4.629-3.623-1.791.155-3.583.314-5.373.477-2.305.21-4.025 2.094-3.917 4.216-.294-2.104-2.338-3.63-4.641-3.403-1.79.177-3.58.358-5.369.544-2.304.239-3.998 2.145-3.865 4.266-.323-2.101-2.381-3.603-4.685-3.346-1.788.199-3.576.403-5.363.611-2.297.268-3.974 2.194-3.814 4.312-.348-2.096-2.43-3.57-4.727-3.285-1.786.222-3.572.448-5.357.678-2.297.296-3.948 2.245-3.761 4.362-.37-2.093-2.476-3.542-4.77-3.228-1.784.244-3.568.492-5.351.745-2.294.325-3.919 2.294-3.708 4.408-.398-2.087-2.518-3.511-4.812-3.168-1.781.266-3.563.537-5.343.812-2.352.363-3.992 2.447-3.647 4.619 1.571 9.918 3.142 19.837 4.713 29.755-2.98.448-5.959.899-8.937 1.371l.799 5.044.14.882c2.976-.471 5.956-.923 8.936-1.371zm166.09-18.706h7.002l.002.023c-2.335-.007-4.671-.007-7.006 0zm37.101.5c-1.753-.052-3.506-.086-5.258-.129l-1.296-15.887v-44.239c4.345 9.038 8.228 26.99 6.554 60.255zm-60.646-60.257v44.241l-1.296 15.886c-1.753.043-3.506.078-5.258.129-1.673-33.266 2.209-51.219 6.554-60.256z"/></g></svg>