<svg id="Capa_1" enable-background="new 0 0 512 512" height="512" viewBox="0 0 512 512" width="512" xmlns="http://www.w3.org/2000/svg"><g><path d="m267.25 0c-4.143 0-7.5 3.358-7.5 7.5v30h15v-30c0-4.142-3.357-7.5-7.5-7.5z" fill="#353535"/><path d="m102.25 195c-4.136 0-7.5-3.364-7.5-7.5s3.364-7.5 7.5-7.5h15c4.142 0 7.5-3.358 7.5-7.5s-3.358-7.5-7.5-7.5h-15c-12.407 0-22.5 10.093-22.5 22.5s10.093 22.5 22.5 22.5h165v-15z" fill="#ebebeb"/><path d="m447.25 135c-4.143 0-7.5 3.358-7.5 7.5 0 28.949-23.552 52.5-52.5 52.5h-120v15h120c37.22 0 67.5-30.28 67.5-67.5 0-4.142-3.357-7.5-7.5-7.5z" fill="#ccc"/><path d="m229.75 292.5v196.592l-24.87 8.29c-3.93 1.31-6.053 5.557-4.744 9.487 1.31 3.93 5.559 6.054 9.487 4.744l29.998-10c3.063-1.021 5.128-3.887 5.128-7.115v-201.998z" fill="#ffb4a9"/><path d="m304.75 292.5v196.592l24.87 8.29c3.93 1.31 6.053 5.557 4.744 9.487-1.31 3.93-5.559 6.054-9.487 4.744l-29.998-10c-3.063-1.021-5.128-3.887-5.128-7.115v-201.998z" fill="#ff8d7e"/><path d="m297.25 252.5s-75 55.002-75 55.002v59.998c0 8.284 6.716 15 15 15s15-6.716 15-15v-17.571c4.693 1.659 9.739 2.571 15 2.571 11.528 0 22.038-4.339 30-11.467z" fill="#4f4f4f"/><path d="m282.25 262.5v105c0 8.284 6.716 15 15 15s15-6.716 15-15v-60z" fill="#353535"/><path d="m357.25 172.5h-65l-60 30 50 90 30-15v-25c15.697-11.791 26.597-29.601 29.316-50h45.684c0-16.569-13.431-30-30-30z" fill="#ccc"/><path d="m292.25 172.5h-115c-16.569 0-30 13.432-30 30h45.684c2.72 20.399 13.62 38.209 29.316 50v25l60 15v-39.999c0-9.435 4.438-18.319 11.981-23.986 11.451-8.603 18.019-21.729 18.019-36.015 0-11.046-8.954-20-20-20z" fill="#ebebeb"/><path d="m312.25 307.5h-30l-15-15 15-15h30z" fill="#eb1b00"/><path d="m222.25 277.5h60v30h-60z" fill="#ff4128"/><path d="m267.25 52.5v90c24.853 0 45-20.147 45-45s-20.147-45-45-45z" fill="#ff8d7e"/><path d="m282.25 97.5c0-24.853-6.716-45-15-45-24.853 0-45 20.147-45 45s20.147 45 45 45c8.284 0 15-20.147 15-45z" fill="#ffb4a9"/><path d="m297.25 22.5h-30v30h30c8.284 0 15-6.716 15-15s-6.716-15-15-15z" fill="#353535"/><path d="m282.25 37.5c0-8.284-6.716-15-15-15h-30c-8.284 0-15 6.716-15 15s6.716 15 15 15h30c8.284 0 15-6.716 15-15z" fill="#4f4f4f"/><path d="m124.75 7.5v135c37.279 0 67.5-30.221 67.5-67.5s-30.221-67.5-67.5-67.5z" fill="#999"/><path d="m162.25 75c0-37.279-16.789-67.5-37.5-67.5-37.279 0-67.5 30.221-67.5 67.5s30.221 67.5 67.5 67.5c20.711 0 37.5-30.221 37.5-67.5z" fill="#b3b3b3"/><g fill="#999"><circle cx="94.75" cy="82.5" r="7.5"/><circle cx="124.75" cy="112.5" r="7.5"/></g></g></svg>