<svg height="512" viewBox="0 0 64 64" width="512" xmlns="http://www.w3.org/2000/svg"><g id="_28-Muscle" data-name="28-Muscle"><path d="m61 48c0 3-9 13-23 13-9.66 0-17.41-2.76-20.7-4.71a8.70263 8.70263 0 0 0 -1.3 4.71h-13v-31c5.51 0 13.55-.84 19.48 7.54a16.45206 16.45206 0 0 1 9.52-2.54 16.69774 16.69774 0 0 1 9.2 2.33 50.09839 50.09839 0 0 1 3.78-8.98c0-7.4-1.99-10.44-1.99-10.44a14.81463 14.81463 0 0 1 -4.99 1.09 25.01175 25.01175 0 0 1 -6.79-1.23 2.00245 2.00245 0 0 1 -1.19-2.81l.98-1.96-1.38-3.45a2.00539 2.00539 0 0 1 .8-2.44l5.12-3.2a6.05492 6.05492 0 0 1 3.18-.91h7.74a5.99969 5.99969 0 0 1 5.37 3.31c3.13 6.23 9.17 20.94 9.17 41.69z" fill="#ffccbc"/><g fill="#ffab91"><path d="m61 48c0 3-9 13-23 13-9.66 0-17.41-2.76-20.7-4.71a9.39551 9.39551 0 0 1 2.16-2.37 36.675 36.675 0 0 0 16.54 4.08c14 0 23-10 23-13a133.76259 133.76259 0 0 0 -2.68-27.56 99.61033 99.61033 0 0 1 4.68 30.56z"/><path d="m42.99 17.91a12.41559 12.41559 0 0 1 1.32275 3.725 8.79769 8.79769 0 0 0 2.68725-5.635z"/><path d="m31 13-.5 1h5.5a3.00328 3.00328 0 0 0 3-3v-1a1 1 0 0 0 -2 0v1a1.00067 1.00067 0 0 1 -1 1h-5.4z"/><path d="m19.46 53.92a8.69441 8.69441 0 0 0 -3.46 7.08h-4c.5-5.02 2.26808-7.5323 4.89809-8.52229z"/></g></g></svg>