<svg id="Layer_1" enable-background="new 0 0 324.885 237.379" height="512" viewBox="0 0 324.885 237.379" width="512" xmlns="http://www.w3.org/2000/svg"><g><path d="m189.268 147.079c-1.828-2.056-2.747-4.7-2.586-7.447.004-.07.007-.137.011-.207h-48.503c.004.07.007.137.011.207.161 2.747-.758 5.391-2.586 7.447-.716.805-1.54 1.477-2.44 2.012l-3.162 25.107c-.041.321-.068.644-.083.967l-2.274 49.4c-.312 6.758 4.915 12.489 11.673 12.8.192.009.383.013.573.013 6.506 0 11.925-5.121 12.227-11.687l2.252-48.915 4.003-31.794h8.111l4.004 31.793 2.251 48.915c.302 6.567 5.72 11.688 12.228 11.688.189 0 .381-.004.572-.013 6.758-.312 11.985-6.042 11.674-12.8l-2.273-49.4c-.015-.324-.043-.646-.083-.968l-3.162-25.107c-.898-.535-1.722-1.206-2.438-2.011z"/><circle cx="162.442" cy="22.5" r="22.5"/><path d="m261.811 177.341c0 2.2 1.8 4 4 4h.716c1.859 0 3.421-1.292 3.863-3.02.441 1.728 2.003 3.02 3.863 3.02h.716c1.798 0 3.312-1.211 3.811-2.852.499 1.642 2.012 2.852 3.811 2.852h.716c2.2 0 4-1.8 4-4v-21.558h6.821v-10.8h30.758v-5.558h-30.758v-10.8h-6.821v-21.558c0-2.2-1.8-4-4-4h-.716c-1.799 0-3.312 1.211-3.811 2.852-.499-1.641-2.013-2.852-3.811-2.852h-.716c-1.86 0-3.422 1.292-3.863 3.02-.442-1.728-2.004-3.02-3.863-3.02h-.716c-2.2 0-4 1.8-4 4v32.358h-54.489c-.026.473-.047.933-.075 1.41-.088 1.495-.501 2.895-1.155 4.148h53.419 2.3z"/><path d="m117.638 140.835c-.028-.477-.049-.937-.075-1.41h-54.479v-32.358c0-2.2-1.8-4-4-4h-.716c-1.859 0-3.421 1.292-3.863 3.02-.441-1.728-2.002-3.02-3.862-3.02h-.716c-1.804 0-3.322 1.219-3.816 2.868-.493-1.649-2.011-2.868-3.815-2.868h-.716c-2.199 0-4 1.8-4 4v20.958.6h-6.82v10.8h-30.76v5.558h30.759v10.8h6.82v.6 20.958c0 2.2 1.801 4 4 4h.716c1.805 0 3.322-1.218 3.815-2.867.494 1.649 2.013 2.867 3.816 2.867h.716c1.86 0 3.421-1.292 3.862-3.02.442 1.728 2.004 3.02 3.863 3.02h.716c2.2 0 4-1.8 4-4v-32.358h2.3 53.409c-.653-1.252-1.066-2.653-1.154-4.148z"/><path d="m119.934 140.701c.249 4.252 3.774 7.533 7.979 7.533.157 0 .316-.004.475-.014 4.411-.258 7.777-4.043 7.52-8.454-2.025-34.615.421-53.048 3.223-62.764l2.297.314c-2.629 8.903-5.151 26.339-3.363 59.809h48.757c1.788-33.47-.734-50.906-3.363-59.809l2.297-.314c2.802 9.715 5.248 28.149 3.223 62.764-.258 4.411 3.108 8.196 7.52 8.454.158.009.317.014.475.014 4.204 0 7.729-3.281 7.979-7.533 1.683-28.765.57-50.783-3.3-65.873-2.248-8.765-5.424-15.199-9.53-19.242-3.256-3.206-6.448-4.326-8.645-4.69-.552-.125-1.125-.198-1.715-.198h-38.635c-.59 0-1.163.072-1.715.198-2.197.365-5.39 1.484-8.646 4.69-4.106 4.043-7.282 10.477-9.53 19.242-3.873 15.09-4.986 37.108-3.303 65.873z"/></g></svg>