<svg id="Capa_1" enable-background="new 0 0 512 512" height="512" viewBox="0 0 512 512" width="512" xmlns="http://www.w3.org/2000/svg"><g><path d="m218.5 288.75v196.592l-24.87 8.29c-3.93 1.31-6.053 5.557-4.744 9.487 1.31 3.93 5.559 6.054 9.487 4.744l29.998-10c3.063-1.021 5.128-3.887 5.128-7.115v-201.998z" fill="#c27749"/><path d="m293.5 288.75v196.592l24.87 8.29c3.93 1.31 6.053 5.557 4.744 9.487-1.31 3.93-5.559 6.054-9.487 4.744l-29.998-10c-3.063-1.021-5.128-3.887-5.128-7.115v-201.998z" fill="#a45e43"/><path d="m504.5 101.25h-23.5v15h23.5c4.143 0 7.5-3.357 7.5-7.5s-3.357-7.5-7.5-7.5z" fill="#808080"/><path d="m367.5 101.25c-4.143 0-7.5 3.357-7.5 7.5s3.357 7.5 7.5 7.5h106v-15z" fill="#999"/><path d="m7.5 281.25c-4.142 0-7.5 3.357-7.5 7.5s3.358 7.5 7.5 7.5h106v-15z" fill="#999"/><path d="m144.5 281.25h-23.5v15h23.5c4.142 0 7.5-3.357 7.5-7.5s-3.358-7.5-7.5-7.5z" fill="#808080"/><path d="m136 191.25c-37.22 0-67.5 30.28-67.5 67.5 0 4.143 3.358 7.5 7.5 7.5s7.5-3.357 7.5-7.5c0-28.948 23.551-52.5 52.5-52.5h120v-15z" fill="#c27749"/><path d="m436 131.25c-4.143 0-7.5 3.357-7.5 7.5 0 28.948-23.552 52.5-52.5 52.5h-120v15h120c37.22 0 67.5-30.28 67.5-67.5 0-4.143-3.357-7.5-7.5-7.5z" fill="#a45e43"/><path d="m219.628 33.684c-1.494-5.8.01-12.213 4.552-16.754s10.955-6.047 16.754-4.552c3.045-5.158 8.643-8.628 15.066-8.628 8.848 0 16.143 6.573 17.316 15.098 15.485 1.183 27.684 14.114 27.684 29.902v45h-90s0-35.335 0-45c0-6.423 3.471-12.022 8.628-15.066z" fill="#ccc"/><path d="m256 48.75v90c24.853 0 45-20.147 45-45s-20.147-45-45-45z" fill="#a45e43"/><path d="m271 93.75c0-24.853-6.716-45-15-45-24.853 0-45 20.147-45 45s20.147 45 45 45c8.284 0 15-20.147 15-45z" fill="#c27749"/><path d="m286 233.75s-75 55.002-75 55.002v44.998c0 8.284 6.716 15 15 15s15-6.716 15-15v-2.571c4.693 1.659 9.739 2.571 15 2.571 11.528 0 22.038-4.339 30-11.467z" fill="#ccc"/><path d="m271 243.75v90c0 8.284 6.716 15 15 15s15-6.716 15-15v-45z" fill="#b3b3b3"/><path d="m346 168.75h-65l-60 30 50 90h30v-40c15.697-11.791 26.597-29.601 29.316-50h45.684c0-16.569-13.431-30-30-30z" fill="#a45e43"/><path d="m281 168.75h-115c-16.569 0-30 13.432-30 30h45.684c2.72 20.399 13.62 38.209 29.316 50v40h60v-39.999c0-9.435 4.438-18.319 11.981-23.986 11.452-8.602 18.019-21.729 18.019-36.015 0-11.046-8.954-20-20-20z" fill="#c27749"/><path d="m106 281.25v30c0 8.284 6.716 15 15 15s15-6.716 15-15v-30z" fill="#353535"/><path d="m136 266.25c0-8.284-6.716-15-15-15s-15 6.716-15 15v15c0 8.284 6.716 15 15 15s15-6.716 15-15z" fill="#4f4f4f"/><path d="m16 281.25v30c0 8.284 6.716 15 15 15s15-6.716 15-15v-30z" fill="#353535"/><path d="m46 266.25c0-8.284-6.716-15-15-15s-15 6.716-15 15v15c0 8.284 6.716 15 15 15s15-6.716 15-15z" fill="#4f4f4f"/><path d="m466 101.25v30c0 8.284 6.716 15 15 15s15-6.716 15-15v-30z" fill="#353535"/><path d="m496 86.25c0-8.284-6.716-15-15-15s-15 6.716-15 15v15c0 8.284 6.716 15 15 15s15-6.716 15-15z" fill="#4f4f4f"/><path d="m376 101.25v30c0 8.284 6.716 15 15 15s15-6.716 15-15v-30z" fill="#353535"/><path d="m406 86.25c0-8.284-6.716-15-15-15s-15 6.716-15 15v15c0 8.284 6.716 15 15 15s15-6.716 15-15z" fill="#4f4f4f"/></g></svg>