<svg id="Layer_1" enable-background="new 0 0 130.785 230.577" height="512" viewBox="0 0 130.785 230.577" width="512" xmlns="http://www.w3.org/2000/svg"><g><path d="m125.439 70.808c.228.296.446.597.666.898.547-1.384.721-2.934.407-4.502-.867-4.333-5.087-7.143-9.414-6.276l-1.919.384c3.787 2.444 7.288 5.644 10.26 9.496z"/><path d="m29.102 138.346 11.34 27.105-30.593 45.667c-3.843 5.735-2.308 13.5 3.428 17.342 2.137 1.431 4.554 2.116 6.945 2.116 4.029 0 7.985-1.945 10.396-5.544l34.333-51.25c.293-.437.555-.888.787-1.351l-2.419-7.02z"/><path d="m35.251 51.806c2.733 0 5.308 1.06 7.249 2.984 1.954 1.936 3.037 4.518 3.05 7.269s-1.047 5.343-2.983 7.297l-19.129 19.304 20.287 15.991c-.001-.12-.008-.24-.009-.359-.003-7.074 2.332-13.208 6.626-17.596l-.132-.171 1.402-1.081c.122-1.439.254-2.854.391-4.251.302-3.069.626-6.019.931-8.8l7.698 6.094 13.057-10.07-25.149-19.909c-.048-.038-.098-.068-.146-.104-1.805-1.838-4.009-3.101-6.545-3.493-8.695-1.342-20.597 4.399-24.28 19.439-.102.429-.19.836-.289 1.258l10.654-10.752c1.949-1.967 4.548-3.05 7.317-3.05z"/><path d="m55.995 131.824c-1.622 1.025-3.517 1.582-5.5 1.582-2.333 0-4.537-.765-6.371-2.211l-29.312-23.105c.53 3.77 1.24 7.745 2.148 12.067 2.209 7.598 5.948 11.674 10.247 13.757l38.068 30.111 19.142 55.54c1.784 5.179 6.63 8.431 11.816 8.431 1.351 0 2.726-.221 4.074-.686 6.526-2.25 9.994-9.364 7.744-15.891l-20.334-59c-.778-2.26-2.188-4.249-4.063-5.731l-5.593-4.424c-7.83-.434-15.709-4.2-22.066-10.44z"/><ellipse cx="56.043" cy="22.501" rx="22.5" ry="22.5" transform="matrix(.076 -.997 .997 .076 29.326 76.662)"/><path d="m76.183 70.281c2.478.189 6.109.73 10.187 2.147l-2.135 1.7c-5.38-1.646-9.684-1.675-10.913-1.64l-10.212 7.876c1.112-.153 2.246-.243 3.404-.243 10.026 0 20.313 5.575 27.516 14.914 8.271 10.722 10.343 23.877 6.306 33.654l22.746-17.544s.001 0 .001-.001c10.277-7.927 10.269-25.165-.019-38.503-9.811-12.72-25.422-17.29-35.762-10.813 5.984.407 19.494 2.868 29.186 16.193l-1.175.935c-10.66-14.705-26.076-15.708-30.011-15.708zm42.352 10.839c.998 1.644 1.946 3.411 2.816 5.345l-1.367.615c-.818-1.819-1.707-3.485-2.642-5.038zm-8.236 14.014-2.098.943c-5.185-11.528-12.986-17.435-19.933-20.46l2.047-1.583c7.084 3.346 14.795 9.564 19.984 21.1z"/><path d="m56.876 115.017c4.46 3.515 5.229 10.004 1.714 14.465-.102.129-.217.243-.324.366 10.251 9.909 24.324 12.526 33.407 5.521 10.277-7.927 10.268-25.165-.019-38.503-10.288-13.338-26.959-17.725-37.235-9.799-5.826 4.494-8.343 11.981-7.559 20.054z"/><path d="m3.048 95.889 42.5 33.5c1.467 1.157 3.213 1.718 4.947 1.718 2.366 0 4.709-1.045 6.288-3.048 2.734-3.47 2.139-8.5-1.331-11.235l-35.462-27.953 20.942-21.134c3.11-3.138 3.087-8.204-.052-11.313-3.138-3.11-8.203-3.087-11.313.052l-27.25 27.5c-1.604 1.619-2.441 3.845-2.303 6.12.141 2.275 1.244 4.382 3.034 5.793z"/></g></svg>