<svg id="Capa_1" enable-background="new 0 0 504.5 504.5" height="512" viewBox="0 0 504.5 504.5" width="512" xmlns="http://www.w3.org/2000/svg"><g><path d="m286.5 45h30c8.284 0 15-6.716 15-15 0-16.569-13.431-30-30-30s-30 13.431-30 30c0 8.284 6.716 15 15 15z" fill="#c27749"/><path d="m301.5 45v90c24.853 0 45-20.147 45-45z" fill="#ffb4a9"/><path d="m301.5 45-45 45c0 24.853 20.147 45 45 45 8.284 0 15-20.147 15-45s-6.716-45-15-45z" fill="#ffd9d4"/><path d="m301.5 45c-24.853 0-45 20.147-45 45 24.853 0 45-20.147 45-45z" fill="#c27749"/><path d="m346.5 90c0-24.853-20.147-45-45-45 0 24.853 20.147 45 45 45z" fill="#a45e43"/><path d="m23 97.5c-4.142 0-7.5 3.358-7.5 7.5s3.358 7.5 7.5 7.5h136v-15z" fill="#808080"/><path d="m220 97.5h-38.5v15h38.5c4.142 0 7.5-3.358 7.5-7.5s-3.358-7.5-7.5-7.5z" fill="#696969"/><path d="m264 285v196.592l-24.87 8.29c-3.93 1.31-6.053 5.557-4.744 9.487 1.31 3.93 5.559 6.054 9.487 4.744l29.998-10c3.063-1.021 5.128-3.887 5.128-7.115v-201.998z" fill="#ffd9d4"/><path d="m339 285v196.592l24.87 8.29c3.93 1.31 6.053 5.557 4.744 9.487-1.31 3.93-5.559 6.054-9.487 4.744l-29.998-10c-3.063-1.021-5.128-3.887-5.128-7.115v-201.998z" fill="#ffb4a9"/><path d="m181.5 187.5c-28.948 0-52.5-23.552-52.5-52.5 0-4.143-3.357-7.5-7.5-7.5s-7.5 3.357-7.5 7.5c0 37.22 30.28 67.5 67.5 67.5h120v-15z" fill="#ffd9d4"/><path d="m481.5 262.5c-4.143 0-7.5-3.357-7.5-7.5 0-28.948-23.552-52.5-52.5-52.5h-120v-15h120c37.22 0 67.5 30.28 67.5 67.5 0 4.143-3.357 7.5-7.5 7.5z" fill="#ffb4a9"/><path d="m391.5 165h-60l-30 80h45c15.697-11.791 26.597-29.601 29.316-50h45.684c0-16.569-13.431-30-30-30z" fill="#ffb4a9"/><path d="m211.5 165c-16.569 0-30 13.432-30 30h45.684c2.72 20.399 13.62 38.209 29.316 50h75v-80z" fill="#ffd9d4"/><path d="m301.588 330c24.853 0 45-20.147 45-45v-15.03l-60.034.011z" fill="#ff8d7e"/><path d="m256.412 285c0 24.853 20.147 45 45 45l.034-60.018-45.034-.011z" fill="#ffb4a9"/><path d="m330.166 195c-7.608 0-14.91 3.01-20.311 8.368-4.507 4.471-8.343 8.27-8.355 8.257h-30l30.055 73.357 45.034-15.011v-24.855c6.868-5.051 11.328-13.186 11.328-22.366-.001-15.326-12.425-27.75-27.751-27.75z" fill="#ebebeb"/><path d="m293.145 203.368c-5.401-5.358-12.703-8.368-20.311-8.368-15.326 0-27.75 12.424-27.75 27.75 0 9.179 4.46 17.314 11.328 22.366v24.855l45.034 15.011.055-73.357c-.013.012-3.849-3.786-8.356-8.257z" fill="#fff"/><path d="m181.5 75-15 30 15 30c16.569 0 30-13.432 30-30 0-16.569-13.431-30-30-30z" fill="#353535"/><path d="m151.5 105c0 16.568 13.431 30 30 30v-60c-16.569 0-30 13.431-30 30z" fill="#4f4f4f"/><path d="m61.5 75-15 30 15 30c16.569 0 30-13.432 30-30 0-16.569-13.431-30-30-30z" fill="#353535"/><path d="m31.5 105c0 16.568 13.431 30 30 30v-60c-16.569 0-30 13.431-30 30z" fill="#4f4f4f"/></g></svg>