<svg id="Capa_1" enable-background="new 0 0 512 512" height="512" viewBox="0 0 512 512" width="512" xmlns="http://www.w3.org/2000/svg"><g><path d="m128.5 251.25c-12.407 0-22.5-10.093-22.5-22.5v-45c0-12.407 10.093-22.5 22.5-22.5v15c-4.136 0-7.5 3.364-7.5 7.5v45c0 4.136 3.364 7.5 7.5 7.5s7.5-3.364 7.5-7.5v-30l15-15v45c0 12.407-10.093 22.5-22.5 22.5z" fill="#e18f4e"/><path d="m383.5 251.25c-12.407 0-22.5-10.093-22.5-22.5v-37.5l15 7.5v30c0 4.136 3.364 7.5 7.5 7.5s7.5-3.364 7.5-7.5v-45c0-4.136-3.364-7.5-7.5-7.5v-15c12.407 0 22.5 10.093 22.5 22.5v45c0 12.407-10.093 22.5-22.5 22.5z" fill="#c27749"/><path d="m218.5 288.75v196.592l-24.87 8.29c-3.93 1.31-6.053 5.557-4.744 9.487 1.31 3.93 5.559 6.054 9.487 4.744l29.998-10c3.063-1.021 5.128-3.887 5.128-7.115v-201.998z" fill="#e18f4e"/><path d="m293.5 288.75v196.592l24.87 8.29c3.93 1.31 6.053 5.557 4.744 9.487-1.31 3.93-5.559 6.054-9.487 4.744l-29.998-10c-3.063-1.021-5.128-3.887-5.128-7.115v-201.998z" fill="#c27749"/><path d="m289.747 26.252c-.007-7.769-4.035-15.323-11.247-19.487s-15.768-3.875-22.5.003c-6.732-3.879-15.288-4.167-22.5-.003s-11.24 11.718-11.247 19.487c-6.725 3.891-11.253 11.157-11.253 19.485s0 48.013 0 48.013h90s0-39.686 0-48.013-4.528-15.594-11.253-19.485z" fill="#ebebeb"/><path d="m346 168.75h-60l-30 95 45-15c15.697-11.791 26.597-29.601 29.316-50h45.684c0-16.569-13.431-30-30-30z" fill="#c27749"/><path d="m286 233.75s-75 55.002-75 55.002v44.998c0 8.284 6.716 15 15 15s15-6.716 15-15v-2.571c4.693 1.659 9.739 2.571 15 2.571 11.528 0 22.038-4.339 30-11.467z" fill="#4f4f4f"/><path d="m271 243.75v90c0 8.284 6.716 15 15 15s15-6.716 15-15v-45z" fill="#353535"/><path d="m286 233.75h-50l20 55h45v-40c-8.284 0-15-6.716-15-15z" fill="#ccc"/><path d="m226 168.75h-60c-16.569 0-30 13.432-30 30h45.684c2.72 20.399 13.62 38.209 29.316 50l45 15z" fill="#e18f4e"/><path d="m226 168.75v65c0 8.284-6.716 15-15 15v40h60v-40c8.284 0 15-6.716 15-15v-65z" fill="#ebebeb"/><path d="m256 48.75v90c24.853 0 45-20.147 45-45s-20.147-45-45-45z" fill="#c27749"/><path d="m271 93.75c0-24.853-6.716-45-15-45-24.853 0-45 20.147-45 45s20.147 45 45 45c8.284 0 15-20.147 15-45z" fill="#e18f4e"/><path d="m504.5 161.25h-23.5v15h23.5c4.143 0 7.5-3.358 7.5-7.5s-3.357-7.5-7.5-7.5z" fill="#808080"/><path d="m7.5 161.25c-4.143 0-7.5 3.358-7.5 7.5s3.357 7.5 7.5 7.5h443.5v-15z" fill="#999"/><path d="m16 198.75v30c0 8.284 6.716 15 15 15s15-6.716 15-15l15-30z" fill="#ff4128"/><path d="m46 108.75c0-8.284-6.716-15-15-15s-15 6.716-15 15v90c0 8.284 6.716 15 15 15s15-6.716 15-15h15z" fill="#ff6337"/><path d="m46 198.75v30c0 8.284 6.716 15 15 15s15-6.716 15-15v-30z" fill="#eb1b00"/><path d="m61 93.75c-8.284 0-15 6.716-15 15v90c0 8.284 6.716 15 15 15s15-6.716 15-15v-90c0-8.284-6.716-15-15-15z" fill="#ff4128"/><path d="m436 198.75v30c0 8.284 6.716 15 15 15s15-6.716 15-15l15-30z" fill="#ff4128"/><path d="m466 108.75c0-8.284-6.716-15-15-15s-15 6.716-15 15v90c0 8.284 6.716 15 15 15s15-6.716 15-15h15z" fill="#ff6337"/><path d="m466 198.75v30c0 8.284 6.716 15 15 15s15-6.716 15-15v-30z" fill="#eb1b00"/><path d="m481 93.75c-8.284 0-15 6.716-15 15v90c0 8.284 6.716 15 15 15s15-6.716 15-15v-90c0-8.284-6.716-15-15-15z" fill="#ff4128"/></g></svg>