<svg id="Layer_1" enable-background="new 0 0 207.675 168.079" height="512" viewBox="0 0 207.675 168.079" width="512" xmlns="http://www.w3.org/2000/svg"><g><ellipse cx="185.174" cy="22.501" rx="22.5" ry="22.5" transform="matrix(.976 -.219 .219 .976 -.44 41.025)"/><path d="m155.431 40.758c0 5.68-4.62 10.3-10.3 10.3h-10.982l8.378 12.044 18.533-11.682c5.474-9.119 4.016-18.759-.408-24.302-5.485-6.876-17.879-5.334-25.736 1.416-.859.616-1.751 1.263-2.659 1.923h12.874c5.68.001 10.3 4.622 10.3 10.301z"/><path d="m10.496 154.511c.283-3.916 2.067-7.487 5.02-10.069v-5.892c0-2.989 2.432-5.421 5.421-5.421h7.65l11.56-10h-19.21c-8.503 0-15.421 6.918-15.421 15.421v17.663h-5.516v10h14.983c-.316-.305-.628-.617-.918-.952-2.587-2.989-3.854-6.807-3.569-10.75z"/><path d="m175.842 156.213v10h21.032v-10h-5.516v-17.663c0-8.503-6.918-15.421-15.421-15.421h-21.256l-12.017-22.961-2.969 1.875 3.027 4.794c.866 1.371 1.043 3.102.472 4.628-.404 1.079-1.13 1.974-2.102 2.588l-1.839 1.162 4.142 7.913h-58.562c-.634.848-1.341 1.643-2.144 2.338l-8.857 7.662h102.106c2.989 0 5.421 2.432 5.421 5.421v17.663h-5.517z"/><path d="m60.628 105.087h-40.08c-3.891 0-7.074 3.183-7.074 7.074s3.183 7.074 7.074 7.074h24.102l15.8-13.668z"/><path d="m152.329 77.193 1.009-.636-1.056-1.672c-.867-1.372-1.043-3.103-.473-4.63.403-1.078 1.13-1.973 2.101-2.587l5.375-3.394c1.179-.745 2.58-.985 3.945-.676 1.365.308 2.527 1.127 3.271 2.306l1.064 1.685 9.58-6.038c3.286-2.082 4.272-6.475 2.189-9.761-2.082-3.286-6.475-4.272-9.761-2.189l-25.332 15.967z"/><path d="m89.774 116.621 28.062-17.687-1.035-1.638c-.867-1.372-1.043-3.103-.473-4.63.404-1.079 1.13-1.973 2.102-2.587l5.374-3.396c2.44-1.54 5.677-.808 7.217 1.63l3.027 4.792 2.958-1.869-10.209-14.676-31.351 19.763-7.53 20.308c.688.293 1.329.326 1.858-.01z"/><path d="m62.401 106.92-45.321 39.206c-5.222 4.517-5.792 12.411-1.275 17.631 2.472 2.858 5.955 4.322 9.459 4.322 2.897 0 5.809-1.002 8.172-3.046l47.748-41.305c1.592-1.377 2.811-3.134 3.542-5.107l13.554-36.552 2.408.121-3.525 9.506 7.864-4.957v-.082c.06-.009.121-.022.181-.032l19.875-12.527-18.441-26.509c-5.239 2.909-10.667 5.423-16.138 7.091-4.879 1.893-7.818 3.656-9.391 5.56-1.364 1.281-2.469 2.878-3.164 4.752l-5.846 15.764z"/><path d="m140.34 96.029-2.018-2.901-4.989 3.151-4.255-6.737c-.861-1.363-2.681-1.774-4.044-.913l-5.374 3.394c-1.363.861-1.774 2.681-.913 4.044l11.7 18.523c.861 1.363 2.681 1.774 4.044.913l5.374-3.395c1.363-.861 1.774-2.681.913-4.044l-4.256-6.737 5.466-3.453c-.616-.54-1.17-1.158-1.648-1.845z"/><path d="m164.557 67.131c-.861-1.363-2.68-1.774-4.043-.913l-5.375 3.395c-1.362.86-1.773 2.68-.912 4.043l4.256 6.737-2.728 1.723 1.495 2.149c.667.959 1.138 1.994 1.441 3.059l2.981-1.883 4.255 6.737c.861 1.363 2.681 1.774 4.043.913l5.375-3.395c1.363-.861 1.773-2.68.912-4.043z"/><path d="m142.227 94.716c1.555 2.235 4.044 3.432 6.574 3.432 1.577 0 3.169-.465 4.562-1.433 3.627-2.523 4.522-7.509 1.999-11.136l-25.614-36.821h15.384c4.418 0 8-3.582 8-8s-3.582-8-8-8h-30.694c-2.979 0-5.711 1.655-7.091 4.295-1.379 2.64-1.178 5.828.523 8.273z"/></g></svg>