<svg id="Layer_1" enable-background="new 0 0 53 53" height="512" viewBox="0 0 53 53" width="512" xmlns="http://www.w3.org/2000/svg"><g id="_x31_03"><path d="m34.9972267 4.1358743c.0781784 1.3575702.1458778 2.6751747.1270828 3.7532415-.0221405 1.2700944.3328018 2.5270238 1.0263023 3.5913014.6316376.9693394 1.1086731 1.9130001 1.3672523 2.8309603l.0260162.3642273.2987175 4.0915918c.0281029.3849506.092083.7721024.249855 1.124361.1598969.3569965.3629532.7003498.6091537 1.0149384 2.2373962 2.7186985 2.4065018 6.6991844 2.4065018 6.6991844 2.3321762 6.284605 3.5176888 12.2680683 1.7093925 17.4476376-.2204361.6314087-.3316574 1.3002205-.2508659 1.9641037.1071243.8803024.2583122 1.6700516.4918709 2.2862358.2182581.575821-.1644361 1.1963425-.7802313 1.1963425l-8.0447235-.0000191c-.3992615 0-.7450523-.2770729-.8320885-.6667328l-1.5421314-6.9039955c-.1430893-.5983772-.4162598-1.1577263-.7674789-1.678051-2.2113819-3.3430862-3.7593327-7.778862-4.5918522-13.3983707-.8325195 5.6195087-2.3804703 10.0552845-4.5918522 13.3983707-.3512192.5203247-.6243896 1.0796738-.7674789 1.678051l-1.5421295 6.9039955c-.087038.3896599-.4328289.6667328-.8320885.6667328l-8.0447254.0000191c-.615797 0-.9984884-.6205215-.7802305-1.1963425.2335587-.6161842.3847466-1.4059334.4918718-2.2862358.0807896-.6638832-.0304308-1.332695-.2508688-1.9641037-1.8082972-5.1795692-.6227837-11.1630325 1.7093945-17.4476376 0 0 .1691055-3.9804859 2.4065027-6.6991844.2462006-.3145885.449255-.6579418.6091509-1.0149384.1577749-.3522587.2217531-.7394104.2498579-1.124361l.2987146-4.0915918.0260162-.3642273c.2585802-.9179602.7356157-1.8616209 1.3672533-2.8309603.6935005-1.0642776 1.0484447-2.321207 1.0263004-3.5913014-.018795-1.0780668.0489063-2.3956714.1270828-3.7532415.0528088-.9170351.8121053-1.6358743 1.7306596-1.6358743h13.5331364c.9185561 0 1.6778526.7188392 1.7306594 1.6358743z" fill="#fcc"/><g fill="#f2bbbb"><path d="m11.3367996 45.475647c.1029758-.7623901.4885988-1.5023155 1.0780287-2.0285492.575696-.5431404 1.2866802-.9085197 2.0064783-1.1966438l.2509689-.1004372c-.0160856.1747627-.4529486 1.8131676.0881281 3.6533737.3024168 1.1040726.8480215 2.1388321 1.4476137 3.1362762-.7185268-.9142799-1.3524981-1.9231949-1.7144613-3.0566788-.3558493-1.1303139-.4219856-2.3623276-.1650629-3.5218582l.2019024.16959c-.7057447.2717705-1.3914814.6042366-1.9751167 1.0759239-.5759335.4744645-1.0307884 1.1172524-1.2184792 1.8690034z"/><path d="m16.5751419 39.0956001c.5478268-1.7731323 1.1713181-3.5128822 1.7468548-5.2705765.6112652-1.7455826 1.172987-3.5062542 1.8170414-5.2467976-.3847504 1.8165245-.9321804 3.5897007-1.5093842 5.3510456-.612772 1.7493173-1.2567482 3.4897004-2.054512 5.1663285z"/><path d="m15.8589964 27.1923027c.1560907 1.317009.0940037 2.6487465-.0511303 3.9651585-.1822128 1.3117695-.4483452 2.6182194-.9242411 3.8563099.2142878-1.3060532.4579525-2.592495.6018963-3.8965225.1810208-1.2993432.261528-2.60631.3734751-3.9249459z"/><path d="m19.8146286 11.5323353c-1.1246338-1.8016376-1.3365402-4.1919522-.5410004-6.1620669-.3465595 2.0885724-.1661739 4.1661095.5410004 6.1620669z"/><path d="m21.7143993 12.4429998c.8373032 2.4217148 2.0260086 4.6449823 3.5699291 6.6896887-1.8803176-1.7432041-3.1667594-4.1581707-3.5699291-6.6896887z"/><path d="m16.1007557 16.3482952c-.00667-.2926521.0824127-.5950279.2379475-.8508005.1489449-.2618055.3565636-.4766493.5560055-.6879997.4359589-.3833199.863821-.7531433 1.3775864-1.0409908-.3289337.4848671-.7544136.8762064-1.152422 1.2750483-.4161892.3803433-.7827588.7717227-1.0191174 1.3047427z"/><path d="m21.2506504 41.8622513c-1.0517483-2.4530792-1.0714378-5.375618-.0475559-7.8412399-.5853825 2.5999984-.5713291 5.2486648.0475559 7.8412399z"/><path d="m10.1766758 37.8874054c.0157204-1.2387276.2358828-2.4628448.5234528-3.6650848.3237743-1.192955.7168598-2.3730469 1.2980337-3.4672337-.3290939 1.1917229-.6982021 2.3565311-.9833107 3.5476208-.3213129 1.181797-.5567198 2.3809051-.8381758 3.5846977z"/><path d="m41.6632614 45.475647c-.1877708-.7517509-.6426277-1.3945389-1.2185593-1.8690033-.5836372-.4716873-1.269371-.8041534-1.9751167-1.0759239l.2019005-.16959c.2569237 1.1595306.1907883 2.3915443-.1649818 3.5218582-.3620415 1.1334839-.9960136 2.1423988-1.7144623 3.0566788.599514-.9974442 1.1451187-2.0322037 1.4475365-3.1362762.3232155-1.0992661.340126-2.2608566.1370354-3.3831902l-.0489082-.2701836.2509689.1004372c.7198753.2881241 1.4307823.6535034 2.0065575 1.1966438.5894278.5262337.9750518 1.266159 1.0780295 2.0285492z"/><path d="m36.424839 39.0956001c-.7976837-1.6766281-1.4417381-3.4170113-2.054512-5.1663284-.5771255-1.7613449-1.1245575-3.5345211-1.509304-5.3510456.6439743 1.7405434 1.2057762 3.501215 1.8169594 5.2467976.5755386 1.7576942 1.1991081 3.4974441 1.7468566 5.2705764z"/><path d="m37.1410637 27.1923027c.111866 1.3186359.1924553 2.6256027.373394 3.9249458.1440239 1.3040276.3876076 2.5904694.6018982 3.8965225-.4758949-1.2380905-.7420311-2.5445404-.9242401-3.8563099-.1451378-1.3164119-.207222-2.6481494-.0510521-3.9651584z"/><path d="m33.1853523 11.5323353c.7071724-1.9959574.8876381-4.0734944.5410004-6.1620669.7955398 1.9701147.5836334 4.3604292-.5410004 6.1620669z"/><path d="m31.2856598 12.4429998c-.4032478 2.531518-1.6896896 4.9464846-3.5700092 6.6896887 1.5439205-2.0447063 2.7326278-4.2679739 3.5700092-6.6896887z"/><path d="m36.8992233 16.3482952c-.2363586-.53302-.6029243-.9243994-1.0191154-1.3047428-.3979301-.3988419-.8234901-.7901812-1.1524239-1.2750483.5137672.2878475.9416275.657671 1.3775864 1.0409908.1994438.2113504.4070625.4261942.5560875.6879997.1555328.2557727.2445373.5581485.2378654.8508006z"/><path d="m31.7493286 41.8622513c.618885-2.5925751.6329384-5.2412415.0476379-7.8412399 1.0238801 2.4656219 1.0041123 5.3881607-.0476379 7.8412399z"/><path d="m42.8233032 37.8874054c-.281456-1.2037926-.516861-2.4029007-.8381729-3.5846977-.2850304-1.1910896-.6541405-2.3558979-.9833107-3.5476208.5812531 1.0941868.9742584 2.2742786 1.2980309 3.4672337.2875709 1.2022399.5077324 2.4263572.5234527 3.6650848z"/></g><path d="m38.112545 19.9438686c-4.6828957 1.7951279-8.6609211 9.8087368-11.6162472 9.4559803-3.1003265-.3700638-6.9332733-7.6608524-11.6162453-9.4559803.1430702-.3772068.2471571-.7674332.2731991-1.1707611l.2991619-4.0975122c1.9251766 1.4438829 6.1503277 2.042285 11.0438843 2.042285s9.1187077-.598402 11.0438862-2.042285l.2992401 4.0975122c.0259629.403328.1300507.7935543.2731209 1.1707611z" fill="#f66"/><g><path d="m37.5819435 15.2517796c-2.460022 1.6199951-7.3499756 1.9699707-11.0899658 1.9699707-3.7300415 0-8.6200562-.3499756-11.0800171-1.9699707l.039978-.5800171.0300293-.3599854c.0199585-.0700073.039978-.1300049.0599976-.2000122l.2099609.1599731c1.6700439 1.2600098 5.4900513 1.9500122 10.7400513 1.9500122 5.2599487 0 9.0799561-.6900024 10.75-1.9500122l.2199707-.1599731c.0200195.0700073.039978.1300049.0599976.2000122l.0200195.3599854z" fill="#666"/></g><path d="m27.263813 8.6528273c0 .3512449-.2862206.6373854-.6373863.6373854-.3382244 0-.6244431-.2861404-.6244431-.6373854s.2862186-.6243649.6244431-.6243649c.3511658 0 .6373863.2731199.6373863.6243649z" fill="#f2bbbb"/></g></svg>