<svg id="Layer_1" enable-background="new 0 0 424 202.682" height="512" viewBox="0 0 424 202.682" width="512" xmlns="http://www.w3.org/2000/svg"><g><path d="m264.703 55.941-13.905-5.316-16.071-6.144c-1.036-.396-2.103-.563-3.146-.524-.264-.027-.532-.042-.803-.042h-2.074c-4.411 4.027-10.275 6.486-16.704 6.486s-12.293-2.46-16.704-6.486h-3.152c-1.113 0-2.168.24-3.124.663l-15.818 6.047-13.905 5.315-12.758-5.315h-30.677l1.543 3.087c.858 1.717 2.306 3.068 4.078 3.807l34.608 14.42c.224.093.451.172.679.244.019.006.037.014.056.02.344.106.691.18 1.038.238.078.013.157.024.235.035.356.048.712.081 1.066.081h.003.002c.346 0 .695-.031 1.043-.077.067-.009.134-.017.201-.027.333-.053.664-.125.995-.221.056-.016.111-.037.167-.055.15-.047.3-.092.449-.148l22.39-8.559v6.364 47.225l-2.3 1.016-24.112 10.651c-3.616 1.597-6.239 4.841-7.044 8.712l-10.5 50.5c-1.377 6.624 2.876 13.11 9.5 14.487.841.175 1.68.26 2.506.26 5.682-.001 10.778-3.977 11.981-9.759l9.218-44.334 34.988-15.455c1.358-.6 2.541-1.426 3.55-2.4 1.009.974 2.192 1.801 3.55 2.4l34.988 15.455 9.218 44.334c1.203 5.782 6.299 9.759 11.981 9.759.827-.001 1.666-.085 2.506-.26 6.624-1.377 10.877-7.863 9.5-14.487l-10.5-50.5c-.805-3.871-3.428-7.115-7.044-8.712l-25.596-11.306-2.3-1.016v-47.56-5.785l23.467 8.971c.15.057.302.102.453.15.054.017.107.038.162.054.331.097.664.169.997.222.066.01.132.018.199.027.349.046.698.077 1.044.077h.002.003c.354 0 .711-.033 1.067-.081.078-.011.155-.021.232-.034.349-.058.696-.132 1.041-.238.016-.005.032-.012.048-.017.23-.072.458-.152.685-.246l34.608-14.42c1.773-.739 3.221-2.09 4.079-3.808l1.543-3.086h-30.677z"/><path d="m231.906 40.375c-.318.427-.652.841-.996 1.246.251.003.502.011.748.033.071-.001.142-.002.213-.002 1.259 0 2.495.229 3.678.682l13.842 5.292h73.976c.738 41.04 13.995 40.374 13.995 40.374h72.61s14.028.71 14.028-44-14.028-43.999-14.028-43.999h-72.61s-13.256-.665-13.995 40.375h-2.85-14.325c-.432-.345-.905-.653-1.42-.91-2.879-1.44-6.205-.973-8.566.91h-64.3z"/><path d="m86.638.001h-72.61s-14.029-.71-14.029 44c.001 44.709 14.03 43.999 14.03 43.999h72.61s13.256.665 13.995-40.375h73.975l13.538-5.175c1.271-.554 2.616-.834 3.998-.834h.941c-.342-.404-.675-.815-.991-1.24h-64.301c-2.36-1.882-5.687-2.348-8.566-.91-.515.257-.987.565-1.419.91h-14.325-2.85c-.739-41.041-13.996-40.375-13.996-40.375z"/><circle cx="212" cy="25.602" r="22.5"/></g></svg>