<svg id="Capa_1" enable-background="new 0 0 512 512" height="512" viewBox="0 0 512 512" width="512" xmlns="http://www.w3.org/2000/svg"><g><path d="m218.5 288.75v196.592l-24.87 8.29c-3.93 1.31-6.053 5.557-4.744 9.487 1.31 3.93 5.559 6.054 9.487 4.744l29.998-10c3.063-1.021 5.128-3.887 5.128-7.115v-201.998z" fill="#ffb4a9"/><path d="m293.5 288.75v196.592l24.87 8.29c3.93 1.31 6.053 5.557 4.744 9.487-1.31 3.93-5.559 6.054-9.487 4.744l-29.998-10c-3.063-1.021-5.128-3.887-5.128-7.115v-201.998z" fill="#ffd9d4"/><path d="m196 181.25c-53.762 0-97.5 43.738-97.5 97.5 0 4.143 3.358 7.5 7.5 7.5s7.5-3.357 7.5-7.5c0-45.49 37.009-82.5 82.5-82.5h60v-15z" fill="#ffb4a9"/><path d="m406 91.25c-4.142 0-7.5 3.357-7.5 7.5 0 45.49-37.009 82.5-82.5 82.5h-60v15h60c53.762 0 97.5-43.738 97.5-97.5 0-4.143-3.358-7.5-7.5-7.5z" fill="#ff8d7e"/><path d="m504.5 418.25h-23.5v15h23.5c4.142 0 7.5-3.357 7.5-7.5s-3.358-7.5-7.5-7.5z" fill="#999"/><path d="m405.294 416.391-13.111-8.399c-9.831-6.299-22.535-6.297-32.366 0l-35.726 22.887c-4.915 3.15-11.268 3.15-16.183 0l-35.726-22.887c-9.832-6.299-22.536-6.297-32.366 0l-35.726 22.887c-4.915 3.15-11.268 3.15-16.183 0l-35.726-22.887c-9.831-6.299-22.536-6.297-32.366 0l-13.113 8.399c-1.925 1.234-3.949 1.859-6.016 1.859h-93.186c-4.142 0-7.5 3.357-7.5 7.5s3.358 7.5 7.5 7.5h93.188c4.912 0 9.791-1.462 14.108-4.229l13.112-8.399c4.915-3.15 11.268-3.15 16.183 0l35.726 22.887c9.831 6.298 22.535 6.298 32.366 0l35.726-22.887c4.915-3.15 11.268-3.15 16.183 0l35.726 22.887c4.916 3.149 10.549 4.724 16.183 4.724 5.633-.001 11.268-1.575 16.183-4.724l35.726-22.887c4.915-3.15 11.267-3.15 16.183 0l13.111 8.399c4.318 2.767 9.197 4.229 14.109 4.229h39.687v-15h-39.688c-2.067 0-4.092-.625-6.018-1.859z" fill="#b3b3b3"/><path d="m211 288.75v45c0 8.28 6.72 15 15 15s15-6.72 15-15v-2.571c4.693 1.659 9.739 2.571 15 2.571s10.307-.912 15-2.571l20-72.429z" fill="#80bf63"/><path d="m271 258.75v75c0 8.284 6.716 15 15 15s15-6.716 15-15v-45z" fill="#30b054"/><path d="m301 243.719c8.964-4.993 15-14.315 15-25v-30c0-10.842-8.632-19.647-19.396-19.969h-10.604l-45 75s60 0 60-.031z" fill="#ff8d7e"/><path d="m211 243.719c-8.964-4.993-15-14.315-15-25v-30c0-10.842 8.632-19.647 19.396-19.969h10.604l45 75s-60 0-60-.031z" fill="#ffb4a9"/><path d="m286 228.75v-10.57h-45l30 70.57h30v-45c-8.284 0-15-6.716-15-15z" fill="#ccc"/><path d="m226 168.75v60c0 8.284-6.716 15-15 15v45h60v-45c8.964-4.993 15-14.315 15-25v-50z" fill="#ebebeb"/><path d="m282.15 19.049c-5.144-9.13-14.923-15.299-26.149-15.299s-21.004 6.169-26.148 15.299c-10.691 1.744-18.852 11.018-18.852 22.201v52.5h90v-52.5c0-11.184-8.161-20.457-18.851-22.201z" fill="#ebebeb"/><path d="m255.999 48.75v90c24.853 0 45-20.147 45-45s-20.147-45-45-45z" fill="#ff8d7e"/><path d="m270.999 93.75c0-24.853-6.716-45-15-45-24.853 0-45 20.147-45 45s20.147 45 45 45c8.284 0 15-20.147 15-45z" fill="#ffb4a9"/><path d="m16 425.75v30c0 8.284 6.716 15 15 15s15-6.716 15-15l15-30z" fill="#b3b3b3"/><path d="m46 395.75c0-8.284-6.716-15-15-15s-15 6.716-15 15v30c0 8.284 6.716 15 15 15s15-6.716 15-15h15z" fill="#ccc"/><path d="m46 455.75v30c0 8.284 6.716 15 15 15s15-6.716 15-15v-30z" fill="#808080"/><path d="m61 350.75c-8.284 0-15 6.716-15 15v90c0 8.284 6.716 15 15 15s15-6.716 15-15v-90c0-8.284-6.716-15-15-15z" fill="#999"/><path d="m496 425.75v30c0 8.284-6.716 15-15 15s-15-6.716-15-15l-15-30z" fill="#b3b3b3"/><path d="m466 395.75c0-8.284 6.716-15 15-15s15 6.716 15 15v30c0 8.284-6.716 15-15 15s-15-6.716-15-15h-15z" fill="#ccc"/><path d="m466 455.75v30c0 8.284-6.716 15-15 15s-15-6.716-15-15v-30z" fill="#808080"/><path d="m451 350.75c8.284 0 15 6.716 15 15v90c0 8.284-6.716 15-15 15s-15-6.716-15-15v-90c0-8.284 6.716-15 15-15z" fill="#999"/><path d="m267.557 98.483c-2.171-.729-4.097-2.167-5.422-4.05-1.405-1.996-3.693-3.184-6.133-3.184-2.441 0-4.729 1.188-6.134 3.184-1.325 1.883-3.25 3.321-5.422 4.05-3.927 1.317-6.042 5.569-4.725 9.496s5.569 6.043 9.496 4.725c2.419-.812 4.709-1.991 6.784-3.474 2.075 1.482 4.365 2.662 6.784 3.474 3.927 1.318 8.178-.798 9.496-4.725s-.797-8.178-4.724-9.496z" fill="#fff"/></g></svg>