<svg id="Capa_1" enable-background="new 0 0 512 512" height="512" viewBox="0 0 512 512" width="512" xmlns="http://www.w3.org/2000/svg"><g><path d="m507.825 203.381c3.362-3.059 4.832-7.689 3.9-12.138-13.77-65.721-36.431-105.834-48.073-124.056-8.72-13.647-56.043-27.732-63.141-28.299-6.277-.501-20.561 30.438-24.248 47.393-.807 3.711 1.196 7.505 4.757 8.823 14.889 5.513 38.507-.162 38.507-.162l8.758 4.784c15.098 8.247 25.322 23.237 27.489 40.303l2.806 22.098c.402 3.164-3.119 5.278-5.752 3.477-21.498-14.697-51.462-20.025-86.243-3.945-3.02 1.396-6.461 1.562-9.578.396-22.691-8.492-48.025-2.419-70.738-13.261-1.504-.718-2.457-2.247-2.457-3.913v-48.019h-55.623v48.019c0 1.666-.953 3.195-2.457 3.913-22.713 10.843-48.048 4.769-70.738 13.261-3.116 1.166-6.557 1-9.578-.396-34.782-16.08-64.746-10.752-86.243 3.945-2.633 1.8-6.154-.313-5.752-3.477l2.806-22.098c2.167-17.066 12.391-32.056 27.489-40.303l8.758-4.784s23.618 5.675 38.507.162c3.561-1.319 5.564-5.113 4.757-8.823-3.687-16.954-17.971-47.894-24.248-47.393-7.097.567-54.421 14.652-63.141 28.299-11.643 18.222-34.304 58.336-48.074 124.057-.932 4.449.538 9.078 3.9 12.137 12.052 10.967 46.669 34.653 121.943 36.141 1.677.033 3.134 1.185 3.512 2.819 5.047 21.808 14.124 46.993 33.058 70.462 2.709 3.358 4.134 7.573 4.134 11.888v62.986l33.395 38.992 94.85 3.822 50.113-42.814v-62.986c0-4.315 1.424-8.529 4.133-11.888 18.934-23.468 28.01-48.654 33.058-70.462.378-1.634 1.835-2.786 3.512-2.819 75.273-1.488 109.89-25.174 121.942-36.141z" fill="#f1b0a2"/><path d="m511.724 191.238c-13.77-65.718-36.43-105.83-48.072-124.051-8.72-13.647-56.043-27.732-63.141-28.299-1.495-.119-3.446 1.558-5.597 4.391 16.812 5.324 40.201 14.715 46.074 23.908 11.647 18.228 34.318 53.483 48.087 119.244.935 4.466-.605 9.077-3.986 12.141-11.414 10.342-39.406 24.919-105.47 27.628-8.879.364-16.547 6.38-19.001 14.921-6.416 22.325-17.912 51.653-33.769 71.434-2.767 3.452-4.333 7.711-4.333 12.136v77.664l5.777 54.473 8.096-47.017 8.791-22.134v-62.986c0-4.315 1.424-8.529 4.133-11.888 18.933-23.468 28.01-48.653 33.057-70.461.378-1.635 1.836-2.787 3.514-2.821 75.265-1.488 109.882-25.169 121.937-36.137 3.364-3.06 4.836-7.694 3.903-12.146z" fill="#eb9c8d"/><path d="m206.999 55.281 4.098 43.96c1.259 13.51 12.597 23.839 26.165 23.839h37.477c13.568 0 24.905-10.33 26.165-23.839l4.098-43.96c2.16-23.171-16.072-43.181-39.343-43.181h-19.315c-23.273 0-41.505 20.011-39.345 43.181z" fill="#678d98"/><path d="m265.658 12.1s-20.434.022-20.99.045c22.463.934 39.776 20.525 37.669 43.136l-4.098 43.96c-1.259 13.509-12.597 23.839-26.165 23.839h22.664c13.568 0 24.905-10.33 26.165-23.839l4.098-43.96c2.16-23.171-16.072-43.181-39.343-43.181z" fill="#4e737c"/><g fill="#eb9c8d"><path d="m279.085 174.773c-9.183 0-17.436 4.043-23.085 10.437-5.65-6.394-13.903-10.437-23.086-10.437-4.267 0-7.726 3.459-7.726 7.726s3.459 7.726 7.726 7.726c8.469 0 15.36 6.89 15.36 15.359v21.014c0 4.268 3.459 7.726 7.726 7.726 4.268 0 7.726-3.459 7.726-7.726v-21.014c0-8.469 6.89-15.359 15.359-15.359 4.268 0 7.726-3.459 7.726-7.726s-3.458-7.726-7.726-7.726z"/><path d="m256 357.765c-4.267 0-7.726-3.459-7.726-7.726v-40.215c0-4.268 3.459-7.726 7.726-7.726 4.268 0 7.726 3.459 7.726 7.726v40.215c0 4.267-3.458 7.726-7.726 7.726z"/><g><path d="m196.676 309.375c-3.225 0-6.234-2.035-7.321-5.261-1.363-4.044.811-8.427 4.855-9.79 14.177-4.778 23.702-18.048 23.702-33.021 0-4.268 3.459-7.726 7.726-7.726s7.726 3.459 7.726 7.726c0 21.612-13.752 40.766-34.22 47.665-.817.276-1.649.407-2.468.407z"/><path d="m315.324 309.375c-.818 0-1.65-.131-2.469-.406-20.468-6.898-34.22-26.053-34.22-47.665 0-4.268 3.459-7.726 7.726-7.726s7.726 3.459 7.726 7.726c0 14.973 9.525 28.243 23.703 33.021 4.043 1.363 6.216 5.745 4.854 9.79-1.087 3.225-4.095 5.26-7.32 5.26z"/></g></g><path d="m166.821 402.355-9.758 92.013c-.313 2.956 2.004 5.531 4.976 5.531h75.519c2.764 0 5.077-2.095 5.35-4.845l1.784-17.958c.869-5.573 5.668-9.682 11.308-9.682s10.439 4.109 11.308 9.682l1.784 17.958c.273 2.75 2.587 4.845 5.35 4.845h75.519c2.972 0 5.289-2.576 4.976-5.531l-9.758-92.013v-14.678h-178.358z" fill="#678d98"/><path d="m345.179 387.677h-22.664v14.678l10.345 97.545h17.101c2.972 0 5.289-2.576 4.976-5.531l-9.758-92.013z" fill="#4e737c"/></g></svg>