<svg id="Capa_1" enable-background="new 0 0 512 512" height="512" viewBox="0 0 512 512" width="512" xmlns="http://www.w3.org/2000/svg"><g><path d="m136 380h-15v-45c0-8.271-6.729-15-15-15s-15 6.729-15 15v45h-15v-45c0-16.542 13.458-30 30-30s30 13.458 30 30z" fill="#b3b3b3"/><path d="m436 380h-15v-45c0-8.271-6.729-15-15-15s-15 6.729-15 15v45h-15v-45c0-16.542 13.458-30 30-30s30 13.458 30 30z" fill="#b3b3b3"/><path d="m196 185c-53.762 0-97.5 43.738-97.5 97.5 0 4.142 3.358 7.5 7.5 7.5s7.5-3.358 7.5-7.5c0-45.491 37.009-82.5 82.5-82.5h60v-15z" fill="#ebebeb"/><path d="m316 185h-60v15h60c45.491 0 82.5 37.009 82.5 82.5 0 4.142 3.358 7.5 7.5 7.5s7.5-3.358 7.5-7.5c0-53.762-43.738-97.5-97.5-97.5z" fill="#ccc"/><path d="m218.5 292.5v196.592l-24.87 8.29c-3.93 1.31-6.053 5.557-4.744 9.487 1.31 3.93 5.559 6.054 9.487 4.744l29.998-10c3.063-1.021 5.128-3.887 5.128-7.115v-201.998z" fill="#ffd9d4"/><path d="m337.339 468.992-42.674-67.502c-.762-1.204-1.165-2.583-1.165-3.99v-105h-15v105c0 4.252 1.208 8.407 3.489 12.01l41.511 65.662v29.328c0 4.142 3.358 7.5 7.5 7.5s7.5-3.358 7.5-7.5v-31.5c0-1.419-.402-2.809-1.161-4.008z" fill="#ffb4a9"/><path d="m256 0c-4.142 0-7.5 3.358-7.5 7.5v30h15v-30c0-4.142-3.358-7.5-7.5-7.5z" fill="#353535"/><path d="m83.5 342.5h45v45h-45z" fill="#b3b3b3"/><path d="m128.5 372.5h-30l15 90h30v-75c0-8.284-6.716-15-15-15z" fill="#b3b3b3"/><path d="m98.5 372.5h-15c-8.284 0-15 6.716-15 15v75h45v-75c0-8.284-6.716-15-15-15z" fill="#ccc"/><path d="m383.5 342.5h45v45h-45z" fill="#b3b3b3"/><path d="m428.5 372.5h-30l15 90h30v-75c0-8.284-6.716-15-15-15z" fill="#b3b3b3"/><path d="m398.5 372.5h-15c-8.284 0-15 6.716-15 15v75h45v-75c0-8.284-6.716-15-15-15z" fill="#ccc"/><path d="m256 52.5v90c24.853 0 45-20.147 45-45s-20.147-45-45-45z" fill="#ffb4a9"/><path d="m271 97.5c0-24.853-6.716-45-15-45-24.853 0-45 20.147-45 45s20.147 45 45 45c8.284 0 15-20.147 15-45z" fill="#ffd9d4"/><path d="m286 22.5h-30v30h30c8.284 0 15-6.716 15-15s-6.716-15-15-15z" fill="#353535"/><path d="m271 37.5c0-8.284-6.716-15-15-15h-30c-8.284 0-15 6.716-15 15s6.716 15 15 15h30c8.284 0 15-6.716 15-15z" fill="#4f4f4f"/><path d="m296 172.5h-30l-25 105 60-15c8.964-4.993 15-14.315 15-25v-45c0-11.046-8.955-20-20-20z" fill="#ccc"/><path d="m266 172.5h-50c-11.046 0-20 8.954-20 20v45c0 10.685 6.036 20.007 15 25l60 15v-15c8.964-4.993 15-14.315 15-25v-45c0-11.046-8.955-20-20-20z" fill="#ebebeb"/><path d="m286 267.5s-75 25.002-75 25.002v59.998c0 8.284 6.716 15 15 15s15-6.716 15-15v-17.571c4.693 1.659 9.739 2.571 15 2.571 11.528 0 22.038-4.339 30-11.467z" fill="#4f4f4f"/><path d="m271 277.5v75c0 8.284 6.716 15 15 15s15-6.716 15-15v-60z" fill="#353535"/><path d="m301 292.5h-30l-15-15 15-15h30z" fill="#048168"/><path d="m211 262.5h60v30h-60z" fill="#029965"/></g></svg>