<svg id="Layer_1" enable-background="new 0 0 200.333 247.403" height="512" viewBox="0 0 200.333 247.403" width="512" xmlns="http://www.w3.org/2000/svg"><g><circle cx="100.167" cy="31.779" r="22.5"/><path d="m95 163.24s.051-11.854-21.879-29.446v1.186l-12.997 96.553c-1.033 7.663 4.344 14.712 12.007 15.743.635.085 1.265.127 1.887.127 6.9 0 12.909-5.105 13.857-12.135l9.447-70.182c-1.574-.727-2.322-1.846-2.322-1.846z"/><path d="m105.334 163.24s-.748 1.121-2.324 1.849l9.446 70.18c.945 7.029 6.954 12.134 13.855 12.135.624 0 1.253-.042 1.888-.127 7.663-1.031 13.038-8.08 12.008-15.743l-12.994-96.527v-1.212c-21.93 17.591-21.879 29.445-21.879 29.445z"/><path d="m194.634 5.557h-7.867v-5.557h-8.512v16.935h-2.943c-1-4.175-4.747-7.282-9.228-7.282-4.484 0-8.23 3.107-9.23 7.282h-2.353v-16.935h-8.511v5.821h-7.867v5.292h-5.7v17.992h5.7v5.027h7.867v5.557h8.511v-16.934h2.081v30.922c-2.439-2.053-6.145-3.051-10.049-2.399-4.142.691-7.459 3.07-8.997 6.043l-18.913 2.657h-36.92l-18.905-2.658c-1.539-2.974-4.854-5.351-8.997-6.043-3.904-.652-7.61.347-10.051 2.4v-30.922h2.083v16.935h8.511v-5.557h7.867v-5.027h5.7v-17.993h-5.7v-5.292h-7.867v-5.821h-8.511v16.935h-2.354c-1-4.176-4.747-7.283-9.228-7.283-4.483 0-8.23 3.107-9.23 7.283h-2.943v-16.935h-8.511v5.557h-7.867v5.027h-5.7v17.992h5.7v5.292h7.867v5.821h8.511v-16.934h2.673v40.148c0 4.73 3.492 8.747 8.178 9.407l30.272 4.254c1.752 9.994 5.027 25.157 9.92 33.912v15.8l19.578 15.74s3.879 2.421 7.397 2.453l.068-.509.068.509c3.521-.03 7.401-2.453 7.401-2.453l19.578-15.74v-15.371c5.033-8.691 8.392-24.217 10.17-34.376l30.021-4.219c4.686-.657 8.178-4.677 8.178-9.407v-40.148h2.673v16.935h8.512v-5.821h7.867v-5.292h5.699v-17.993h-5.699v-5.027z"/></g></svg>