<svg id="Layer_1" enable-background="new 0 0 140.707 161.891" height="512" viewBox="0 0 140.707 161.891" width="512" xmlns="http://www.w3.org/2000/svg"><g><path d="m77.947 69.522c-.191.208-.397.398-.614.57l.447 2.47c.287 1.587 1.82 2.65 3.405 2.363l6.256-1.131c1.587-.287 2.649-1.819 2.362-3.406l-3.898-21.559c-.287-1.586-1.819-2.65-3.405-2.363l-6.256 1.131c-.051.009-.097.031-.147.042l3.148 17.414c.289 1.597-.197 3.267-1.298 4.469z"/><path d="m57.752 63.178c-1.327 3.15-4.18 5.58-7.793 6.182-.569.094-1.141.141-1.703.141h-.002c-2.943 0-5.614-1.236-7.501-3.249l-.31.056 5.974 14.874c1.429-.407 2.359-1.836 2.089-3.327l-1.418-7.842 15.456-2.794-.859-4.751z"/><path d="m73.072 11.032c2.672.652 4.931 2.307 6.359 4.659s1.855 5.118 1.202 7.791c-1.131 4.626-5.243 7.857-10.002 7.857-.821 0-1.646-.1-2.448-.296l-14.769-3.607 4.172 25.029 2.219-.401-1.008-5.579c-.289-1.597.197-3.268 1.298-4.469.778-.849 1.788-1.406 2.918-1.61l6.255-1.13c1.372-.248 2.761.054 3.911.853 1.077.747 1.802 1.85 2.096 3.113.084-.044.165-.083.249-.128 13.672-7.27 16.31-20.219 12.868-28.316-1.434-3.376-4.429-5.648-8.102-6.85-.387-.163-.787-.306-1.208-.408l-29.94-7.313c-2.612-.636-5.37.079-7.341 1.908-.422.391-.785.829-1.107 1.291.818 0 1.638.099 2.434.293z"/><ellipse cx="118.201" cy="23.953" rx="22.5" ry="22.5" transform="matrix(.907 -.422 .422 .907 .937 52.136)"/><path d="m8.038 146.606c-1.536 6.73 2.674 13.432 9.404 14.969.937.214 1.872.316 2.794.316 5.701 0 10.852-3.927 12.175-9.721l13.642-59.747c.566-2.481.362-5.078-.587-7.44l-7.333-18.259-1.192.215 1.007 5.58c.289 1.596-.197 3.266-1.298 4.467-.779.849-1.788 1.406-2.919 1.611l-6.255 1.131c-2.838.512-5.565-1.38-6.079-4.216l-3.897-21.561c-.289-1.597.197-3.268 1.299-4.469.779-.849 1.788-1.405 2.919-1.609l6.255-1.132c2.84-.512 5.566 1.38 6.078 4.218l1.009 5.578 2.253-.407-6.034-36.204c-5.96 1.45-12.005 2.46-17.856 2.601-13.91 1.375-14.24 5.565-12.916 14.633.497 3.408 1.282 7.038 2.939 10.272l8.794 21.899 8.569 21.339z"/><path d="m58.45 60.714 5.09-.92 1.418 7.842c.287 1.587 1.82 2.65 3.405 2.363l6.256-1.131c1.587-.287 2.649-1.819 2.362-3.406l-3.898-21.559c-.287-1.587-1.819-2.65-3.405-2.363l-6.256 1.131c-1.586.287-2.649 1.819-2.362 3.406l1.418 7.842-4.514.816.462 2.772c.182 1.09.179 2.168.024 3.207z"/><path d="m38.106 60.892-.416-2.493-4.485.811-1.418-7.842c-.287-1.587-1.82-2.65-3.406-2.363l-6.255 1.131c-1.587.287-2.65 1.819-2.363 3.406l3.898 21.559c.287 1.587 1.82 2.65 3.406 2.363l6.255-1.131c1.587-.287 2.65-1.819 2.363-3.406l-1.418-7.842 4.984-.901c-.55-1-.947-2.106-1.145-3.292z"/><path d="m40.375 60.514c.652 3.913 4.042 6.687 7.882 6.686.437 0 .88-.036 1.325-.109 4.358-.727 7.302-4.849 6.576-9.207l-5.585-33.509 18.156 4.435c4.285 1.048 8.621-1.581 9.67-5.873s-1.581-8.622-5.873-9.67l-29.94-7.313c-2.612-.636-5.37.08-7.341 1.908-1.971 1.829-2.891 4.526-2.449 7.179z"/></g></svg>