<svg id="Capa_1" enable-background="new 0 0 504.5 504.5" height="512" viewBox="0 0 504.5 504.5" width="512" xmlns="http://www.w3.org/2000/svg"><g><g fill="#ffcb63"><path d="m79.75 144.291v-15c0-4.142 3.358-7.5 7.5-7.5s7.5 3.358 7.5 7.5v15c0 4.142-3.358 7.5-7.5 7.5s-7.5-3.358-7.5-7.5z"/><path d="m51.62 152.87-5.74-13.858c-1.585-3.827.232-8.214 4.059-9.799s8.214.232 9.799 4.059l5.74 13.858c1.585 3.827-.232 8.214-4.059 9.799s-8.214-.232-9.799-4.059z"/><path d="m122.88 152.87 5.74-13.858c1.585-3.827-.232-8.214-4.059-9.799s-8.214.232-9.799 4.059l-5.74 13.858c-1.585 3.827.232 8.214 4.059 9.799s8.214-.232 9.799-4.059z"/><path d="m424.75 144.291v-15c0-4.142-3.358-7.5-7.5-7.5s-7.5 3.358-7.5 7.5v15c0 4.142 3.358 7.5 7.5 7.5s7.5-3.358 7.5-7.5z"/><path d="m452.88 152.87 5.74-13.858c1.585-3.827-.232-8.214-4.059-9.799s-8.214.232-9.799 4.059l-5.74 13.858c-1.585 3.827.232 8.214 4.059 9.799s8.214-.232 9.799-4.059z"/><path d="m381.62 152.87-5.74-13.858c-1.585-3.827.232-8.214 4.059-9.799s8.214.232 9.799 4.059l5.74 13.858c1.585 3.827-.232 8.214-4.059 9.799s-8.214-.232-9.799-4.059z"/></g><path d="m214.75 285v196.592l-24.87 8.29c-3.93 1.31-6.053 5.557-4.744 9.487 1.31 3.93 5.559 6.054 9.487 4.744l29.998-10c3.063-1.021 5.128-3.887 5.128-7.115v-201.998z" fill="#ff8d7e"/><path d="m289.75 285v196.592l24.87 8.29c3.93 1.31 6.053 5.557 4.744 9.487-1.31 3.93-5.559 6.054-9.487 4.744l-29.998-10c-3.063-1.021-5.128-3.887-5.128-7.115v-201.998z" fill="#ff6753"/><path d="m447.25 187.5h-195v15h195c4.136 0 7.5 3.364 7.5 7.5 0 4.143 3.357 7.5 7.5 7.5s7.5-3.357 7.5-7.5c0-12.406-10.094-22.5-22.5-22.5z" fill="#ff6753"/><path d="m57.25 187.5c-12.407 0-22.5 10.094-22.5 22.5 0 4.143 3.358 7.5 7.5 7.5s7.5-3.357 7.5-7.5c0-4.136 3.364-7.5 7.5-7.5h195v-15z" fill="#ff8d7e"/><path d="m252.25 45v90c24.853 0 45-20.147 45-45s-20.147-45-45-45z" fill="#ff6753"/><path d="m267.25 90c0-24.853-6.716-45-15-45-24.853 0-45 20.147-45 45s20.147 45 45 45c8.284 0 15-20.147 15-45z" fill="#ff8d7e"/><circle cx="252.25" cy="22.5" fill="#ffcb63" r="22.5"/><path d="m342.25 165h-60l-30 95 45-15c15.697-11.791 26.597-29.601 29.316-50h45.684c0-16.569-13.431-30-30-30z" fill="#ff6753"/><path d="m282.25 230h-50l35 97.429v2.571c0 8.284 6.716 15 15 15s15-6.716 15-15v-85c-8.284 0-15-6.716-15-15z" fill="#353535"/><path d="m222.25 165h-60c-16.569 0-30 13.432-30 30h45.684c2.72 20.399 13.62 38.209 29.316 50l45 15z" fill="#ff8d7e"/><path d="m222.25 165v60l30.042 30 29.958-30v-60z" fill="#ebebeb"/><path d="m222.25 225v5c0 8.284-6.716 15-15 15v85c0 8.284 6.716 15 15 15s15-6.716 15-15v-2.571c4.693 1.659 9.739 2.571 15 2.571 5.262 0 10.308-.913 15-2.574v-82.426c8.284 0 15-6.716 15-15v-5z" fill="#4f4f4f"/><path d="m94.75 180h-22.5v30h30z" fill="#4f4f4f"/><path d="m409.75 180h22.5v30h-30z" fill="#353535"/><path d="m117.25 277.5c-4.136 0-7.5-3.364-7.5-7.5v-90h-15v90c0 12.406 10.093 22.5 22.5 22.5 4.142 0 7.5-3.357 7.5-7.5s-3.358-7.5-7.5-7.5z" fill="#353535"/><path d="m394.75 180v90c0 4.136-3.364 7.5-7.5 7.5-4.143 0-7.5 3.357-7.5 7.5s3.357 7.5 7.5 7.5c12.406 0 22.5-10.094 22.5-22.5v-90z" fill="#4f4f4f"/></g></svg>