<svg id="Capa_1" enable-background="new 0 0 512 512" height="512" viewBox="0 0 512 512" width="512" xmlns="http://www.w3.org/2000/svg"><g><path d="m352.173 231.439v77.297c0 2.43.399 4.827 1.188 7.127.863 2.533 1.761 5.224 2.677 8.073-2.327 40.459 2.934 77.962 16.076 139.436-1.044 13.711-2.847 28.216-5.592 43.515-.53 2.953-3.09 5.113-6.091 5.113h-63.343c-2.117 0-4.087-1.084-5.22-2.872l-7.175-11.318c-6.565-10.363-10.393-22.213-11.135-34.439-.02-.323 3.635-3.32 3.62-3.643l6.157-53.083c-10.377 4.017-38.547 7.567-48.925 3.55l.95 50.199c-.015.323 3.104 2.655 3.084 2.978-.742 12.227-4.57 24.076-11.135 34.439l-7.175 11.318c-1.134 1.788-3.103 2.872-5.22 2.872h-63.343c-3.001 0-5.561-2.16-6.091-5.113-2.745-15.299-4.548-29.803-5.592-43.515 17.152-59.315 21.009-106.597 16.077-139.436.916-2.848 1.813-5.539 2.677-8.073.788-2.3 1.188-4.698 1.188-7.127v-77.297c0-5.399-2.322-10.539-6.382-14.092-21.824-19.146-35.431-50.527-36.716-79.781v-34.189h278.538v34.189c-1.285 29.253-14.891 60.635-36.716 79.781-4.059 3.552-6.381 8.692-6.381 14.091z" fill="#ffdfcf"/><path d="m358.555 217.347c21.824-19.146 35.431-50.527 36.716-79.781v-34.189h-23.694v34.189c-1.285 29.253-14.891 60.635-36.716 79.781-4.06 3.553-6.382 8.693-6.382 14.092v77.297c0 2.43.399 4.827 1.188 7.127 11.965 35.107 30.495 100.439 12.213 196.137h18.551c3.001 0 5.561-2.16 6.091-5.113 2.745-15.299 4.548-29.803 5.592-43.515-13.143-67.147-18.404-114.42-16.076-139.436-.916-2.848-1.813-5.539-2.677-8.073-.788-2.3-1.188-4.698-1.188-7.127v-77.297c0-5.399 2.322-10.539 6.382-14.092z" fill="#ffcebf"/><path d="m469.955 446.66c-1.096-10.267-3.987-29.534-7.201-60.413-3.618-34.756 12.587-115.371-7.569-143.833-1.673-2.363-2.411-5.27-2.237-8.161 2.987-49.729.509-79.758-16.613-99.654-2.955-3.434-4.388-7.941-3.752-12.427 3.98-28.079-1.786-41.953-17.186-55.642-22.576-20.068-67.556-18.075-99.796-30.282-5.755-2.179-9.557-7.697-9.557-13.852v-17.245c0-2.845-2.306-5.151-5.151-5.151h-89.786c-2.845 0-5.151 2.306-5.151 5.151v17.245c0 6.154-3.802 11.673-9.557 13.852-32.24 12.207-77.22 10.215-99.796 30.283-15.4 13.689-21.165 27.563-17.185 55.642.636 4.484-.797 8.989-3.751 12.422-17.123 19.896-19.602 49.928-16.615 99.657.174 2.89-.564 5.798-2.237 8.161-20.155 28.462-3.95 109.078-7.568 143.834-3.214 30.879-6.106 50.145-7.202 60.412-.592 5.552 2.21 10.911 7.106 13.594l14.037 7.69c5.777 3.166 12.983 1.819 17.225-3.219l13.328-15.831c3.215-3.818 4.313-8.988 2.929-13.784l-10.178-35.256c-1.674-5.8-1.263-12.006 1.181-17.526 9.421-21.284 32.726-77.84 28.786-108.312-.419-3.242.444-6.506 2.27-9.218 21.079-31.3 32.651-90.925 28.569-131.376h217.406c-4.082 40.452 7.49 100.076 28.569 131.376 1.826 2.711 2.689 5.976 2.27 9.218-3.94 30.472 19.365 87.028 28.786 108.312 2.443 5.52 2.855 11.726 1.181 17.526l-10.18 35.257c-1.384 4.795-.286 9.965 2.929 13.784l13.328 15.831c4.243 5.039 11.449 6.385 17.226 3.22l14.037-7.691c4.896-2.684 7.698-8.043 7.105-13.594z" fill="#ffdfcf"/><g fill="#ffcebf"><path d="m469.955 446.66c-1.096-10.267-3.987-29.534-7.201-60.413-3.618-34.756 12.587-115.371-7.568-143.833-1.672-2.361-2.411-5.263-2.238-8.151 2.988-49.732.511-79.764-16.611-99.662-2.956-3.436-4.391-7.939-3.755-12.427 3.981-28.081-1.785-41.955-17.186-55.644-9.94-8.835-24.224-13.395-39.85-16.772 6.934 2.693 13.143 6.081 18.214 10.589 15.401 13.689 22.2 33.744 18.219 61.825-.636 4.487.797 8.995 3.753 12.431 17.121 19.898 19.6 49.924 16.612 99.656-.174 2.888.565 5.793 2.237 8.154 20.155 28.462 3.952 109.075 7.57 143.831 3.214 30.88 6.105 50.149 7.201 60.416.592 5.551-2.21 10.91-7.106 13.593l-9.82 5.382c4.309 4.28 10.976 5.274 16.387 2.309l14.037-7.691c4.896-2.682 7.698-8.042 7.105-13.593z"/><g><path d="m346.345 185.429h-53.898c-7.326 0-14.213-2.853-19.393-8.032l-7.79-7.79c-3.017-3.018-3.017-7.909 0-10.928 3.018-3.016 7.909-3.016 10.928 0l7.79 7.79c2.261 2.262 5.268 3.507 8.466 3.507h53.898c7.259 0 13.401-8.682 16.417-13.857 5.209-8.94 8.23-19.262 8.834-25.069.441-4.243 4.225-7.328 8.484-6.886 4.243.441 7.327 4.239 6.886 8.484-.795 7.649-4.459 20.279-10.852 31.252-8.209 14.084-18.502 21.529-29.77 21.529z"/><path d="m219.553 185.429h-53.898c-11.268 0-21.561-7.445-29.769-21.53-6.394-10.973-10.058-23.603-10.853-31.252-.441-4.244 2.642-8.042 6.886-8.484 4.245-.45 8.043 2.642 8.484 6.886 1.421 13.673 12.79 38.927 25.251 38.927h53.898c3.198 0 6.205-1.245 8.466-3.507l7.79-7.79c3.017-3.016 7.909-3.016 10.927 0 3.018 3.018 3.018 7.909 0 10.928l-7.79 7.79c-5.179 5.178-12.066 8.032-19.392 8.032z"/></g><g><path d="m269.555 87.407c-2.096 0-4.183-.847-5.708-2.517-2.877-3.151-2.655-8.038.497-10.915l8.621-7.871c3.026-2.763 6.95-4.285 11.047-4.285h44.906c4.268 0 7.726 3.459 7.726 7.726 0 4.268-3.459 7.726-7.726 7.726h-44.906c-.232 0-.456.087-.629.244l-8.621 7.871c-1.48 1.353-3.347 2.021-5.207 2.021z"/><path d="m242.445 87.407c-1.86 0-3.726-.668-5.208-2.02l-8.621-7.871c-.172-.158-.395-.244-.629-.244h-44.906c-4.267 0-7.726-3.459-7.726-7.726 0-4.268 3.459-7.726 7.726-7.726h44.906c4.098 0 8.022 1.522 11.048 4.285l8.621 7.871c3.151 2.877 3.373 7.765.496 10.915-1.524 1.669-3.612 2.516-5.707 2.516z"/></g></g><path d="m155.966 323.937c-9.493 29.529-20.895 75.986-16.066 139.434h98.533c.02-.323.046-.645.062-.969l1.944-41.532c10.377 4.017 20.744 4.017 31.122 0 0 0 1.986 42.178 2.005 42.501h98.533c4.829-63.448-6.573-109.905-16.066-139.434-66.689 20.1-133.378 20.1-200.067 0z" fill="#678d98"/><path d="m348.405 463.371h23.694c4.829-63.448-6.573-109.905-16.066-139.434-7.286 2.196-14.573 4.137-21.859 5.854 9.048 29.668 18.752 74.181 14.231 133.58z" fill="#4e737c"/><g fill="#ffcebf"><path d="m284.995 233.769c-5.988 0-11.566-1.282-15.482-3.964-3.52-2.411-4.42-7.219-2.008-10.74 2.411-3.518 7.219-4.42 10.74-2.008 3.374 2.312 15.825 1.546 22.134-3.277 3.389-2.592 8.238-1.945 10.831 1.445 2.592 3.389 1.945 8.238-1.445 10.831-6.569 5.022-16.098 7.713-24.77 7.713z"/><path d="m284.993 269.699c-5.987 0-11.564-1.282-15.479-3.962-3.521-2.411-4.421-7.219-2.01-10.74 2.411-3.52 7.218-4.419 10.74-2.01 3.376 2.313 15.828 1.545 22.135-3.277 3.389-2.591 8.238-1.945 10.831 1.445 2.592 3.389 1.945 8.238-1.445 10.831-6.569 5.023-16.1 7.713-24.772 7.713z"/><path d="m283.469 305.654c-5.17 0-10.041-1.306-13.956-3.987-3.52-2.411-4.42-7.219-2.008-10.74 2.411-3.518 7.219-4.421 10.74-2.008 3.375 2.31 11.52 1.535 17.813-3.277 3.392-2.594 8.24-1.945 10.831 1.443 2.593 3.39 1.947 8.239-1.443 10.831-6.658 5.092-14.619 7.738-21.977 7.738z"/><path d="m227.006 233.769c-8.673 0-18.201-2.689-24.772-7.713-3.39-2.592-4.037-7.442-1.445-10.831 2.593-3.39 7.442-4.036 10.831-1.445 6.308 4.824 18.76 5.589 22.135 3.277 3.521-2.412 8.329-1.511 10.74 2.008 2.411 3.521 1.512 8.33-2.009 10.74-3.914 2.681-9.494 3.964-15.48 3.964z"/><path d="m227.007 269.699c-8.674 0-18.202-2.689-24.773-7.713-3.39-2.593-4.037-7.442-1.445-10.831 2.593-3.389 7.442-4.036 10.831-1.445 6.308 4.824 18.76 5.588 22.135 3.277 3.522-2.41 8.329-1.51 10.74 2.01 2.41 3.521 1.511 8.33-2.01 10.74-3.913 2.681-9.493 3.962-15.478 3.962z"/><path d="m228.531 305.654c-7.359 0-15.318-2.646-21.977-7.738-3.389-2.592-4.036-7.441-1.444-10.831 2.593-3.388 7.442-4.034 10.831-1.443 6.292 4.811 14.438 5.586 17.814 3.277 3.521-2.413 8.329-1.51 10.74 2.008 2.411 3.521 1.512 8.33-2.009 10.74-3.913 2.681-8.786 3.987-13.955 3.987z"/></g></g></svg>