<svg clip-rule="evenodd" fill-rule="evenodd" height="512" image-rendering="optimizeQuality" shape-rendering="geometricPrecision" text-rendering="geometricPrecision" viewBox="0 0 173.397 173.397" width="512" xmlns="http://www.w3.org/2000/svg"><g id="Layer_x0020_1"><g id="_277880152"><path id="_277880656" d="m153.718 74.9234c-1.4829-3.9299-2.3541-9.5977-2.6134-17.0035-.1071-13.1303-8.2647-21.2322-21.1595-24.3055-4.6783-1.115-23.328-9.5895-24.3847-14.0314h-37.7232c-1.0567 4.4419-19.7064 12.9164-24.3847 14.0314-12.8948 3.0733-21.0524 11.1752-21.1595 24.3055-.2593 7.4058-1.1305 13.0736-2.6134 17.0035-5.0099 11.8367-.8796 18.5845-4.9026 29.028-8.2052 21.3-.5467 33.9869-3.5905 49.8627h18.3121c-2.3669-12.8922 8.4426-23.5041 6.7222-34.8589-1.1855-7.8283-.6363-11.7901 2.4365-19.2642 1.3105-3.1869 3.2178-6.0572 5.0927-8.7837 3.5881 27.66 16.1179 26.752 13.6115 62.9068h58.6746c-2.5064-36.1548 10.0234-35.2468 13.6115-62.9068 1.8749 2.7265 3.7822 5.5968 5.0927 8.7837 3.0728 7.4741 3.622 11.4359 2.4365 19.2642-1.7204 11.3548 9.0891 21.9667 6.7222 34.8589h18.3121c-3.0438-15.8758 4.6147-28.5627-3.5905-49.8627-4.023-10.4435.1073-17.1913-4.9026-29.028z" fill="#f2b9a1"/><g fill="#d7937b"><path id="_277880632" d="m128.85 95.9046c.2983-1.5599.5666-3.2186.7973-4.9973-2.8941-4.195-5.1857-6.8591-5.3967-12.0077 2.385-2.0823 3.8862-4.8886 4.2792-8.0331l1.7959-14.3673c.1132-.9278-.5472-1.772-1.475-1.8852s-1.772.5472-1.8852 1.475l-1.7959 14.3673c-.2933 2.3472-1.4208 4.3867-3.0634 5.8367-1.6403 1.4481-3.8044 2.3126-6.1736 2.3126h-17.4269c-.9352 0-1.6934.7582-1.6934 1.6934s.7582 1.6934 1.6934 1.6934h17.4269c1.8079 0 3.5329-.3762 5.0969-1.0596.8152 4.5176 4.6608 11.0129 7.8205 14.9718z"/><g fill-rule="nonzero"><path id="_277881136" d="m85.0052 141.935c0 .9352.7582 1.6934 1.6934 1.6934s1.6934-.7582 1.6934-1.6934v-37.038c0-.9352-.7582-1.6934-1.6934-1.6934s-1.6934.7582-1.6934 1.6934z"/><path id="_277881184" d="m80.1139 113.634c.9352 0 1.6934-.7582 1.6934-1.6934s-.7582-1.6934-1.6934-1.6934h-6.6409c-.6425 0-1.2245-.23-1.6607-.6151-.4386-.3872-.7403-.9355-.8194-1.5692l-.6843-5.4749c-.1132-.9278-.9574-1.5882-1.8852-1.475s-1.5882.9574-1.475 1.8852l.6843 5.4749c.1844 1.476.9 2.7644 1.9438 3.6858 1.0462.9236 2.4129 1.4751 3.8965 1.4751z"/><path id="_277880584" d="m93.2833 110.248c-.9352 0-1.6934.7582-1.6934 1.6934s.7582 1.6934 1.6934 1.6934h6.6409c1.4836 0 2.8503-.5515 3.8965-1.4751 1.0438-.9214 1.7594-2.2098 1.9438-3.6858l.6843-5.4749c.1132-.9278-.5472-1.772-1.475-1.8852s-1.772.5472-1.8852 1.475l-.6843 5.4749c-.0791.6337-.3808 1.182-.8194 1.5692-.4362.3851-1.0182.6151-1.6607.6151z"/><path id="_277881040" d="m80.2122 127.904c.9352 0 1.6934-.7582 1.6934-1.6934s-.7582-1.6934-1.6934-1.6934h-5.626c-.4801 0-.9132-.1703-1.2361-.4554-.3253-.2872-.5493-.6951-.6083-1.1677l-.5798-4.6383c-.1132-.9278-.9574-1.5882-1.8852-1.475s-1.5882.9574-1.475 1.8852l.5798 4.6383c.1643 1.3147.8023 2.4629 1.7327 3.2843.9329.8236 2.1507 1.3154 3.4719 1.3154z"/><path id="_277880896" d="m93.185 124.518c-.9352 0-1.6934.7582-1.6934 1.6934s.7582 1.6934 1.6934 1.6934h5.626c1.3212 0 2.539-.4918 3.4719-1.3154.9304-.8214 1.5684-1.9696 1.7327-3.2843l.5798-4.6383c.1132-.9278-.5472-1.772-1.475-1.8852s-1.772.5472-1.8852 1.475l-.5798 4.6383c-.059.4726-.283.8805-.6083 1.1677-.3229.2851-.756.4554-1.2361.4554z"/><path id="_277880752" d="m79.7971 140.503c.9352 0 1.6934-.7582 1.6934-1.6934s-.7582-1.6934-1.6934-1.6934h-4.6565c-.3249 0-.6157-.1132-.8304-.3028-.217-.1916-.3668-.4656-.4065-.7841l-.4799-3.8389c-.1132-.9278-.9574-1.5882-1.8852-1.475s-1.5882.9574-1.475 1.8852l.4799 3.8389c.1449 1.1607.7087 2.1747 1.5309 2.9007.8247.7281 1.9004 1.1628 3.0662 1.1628z"/><path id="_277880488" d="m93.6001 137.116c-.9352 0-1.6934.7582-1.6934 1.6934s.7582 1.6934 1.6934 1.6934h4.6565c1.1658 0 2.2415-.4347 3.0662-1.1628.8222-.726 1.386-1.74 1.5309-2.9007l.4799-3.8389c.1132-.9278-.5472-1.772-1.475-1.8852s-1.772.5472-1.8852 1.475l-.4799 3.8389c-.0397.3185-.1895.5925-.4065.7841-.2147.1896-.5055.3028-.8304.3028z"/></g><g fill-rule="nonzero"><path id="_277879792" d="m64.3412 70.5789c-.9352 0-1.6934.7582-1.6934 1.6934s.7582 1.6934 1.6934 1.6934h2.2225c.9352 0 1.6934-.7582 1.6934-1.6934s-.7582-1.6934-1.6934-1.6934z"/><path id="_277880248" d="m106.833 70.5789c-.9352 0-1.6934.7582-1.6934 1.6934s.7582 1.6934 1.6934 1.6934h2.2225c.9352 0 1.6934-.7582 1.6934-1.6934s-.7582-1.6934-1.6934-1.6934z"/><path id="_277880224" d="m55.1416 38.7086c-.9206-.1534-1.7913.4685-1.9447 1.3891s.4685 1.7913 1.3891 1.9447c3.3238.5569 7.093.4113 10.4789.2806.7098-.0274 1.4036-.0543 1.9955-.0717 2.7238-.0803 3.8684.6713 4.9708 1.3952 1.7781 1.1676 3.4796 2.2847 8.1424 1.5869.9242-.1351 1.5639-.994 1.4288-1.9182s-.994-1.5639-1.9182-1.4288c-3.4122.5107-4.5803-.2562-5.8008-1.0577-1.5406-1.0117-3.1403-2.0622-6.9156-1.9508-.7038.0207-1.3549.046-2.0219.0717-3.2174.1242-6.799.2626-9.8043-.241z"/><path id="_277880056" d="m118.811 42.0424c.9206-.1534 1.5425-1.0241 1.3891-1.9447s-1.0241-1.5425-1.9447-1.3891c-3.0053.5036-6.5869.3652-9.8043.241-.667-.0257-1.3181-.051-2.0219-.0717-3.7753-.1114-5.375.9391-6.9156 1.9508-1.2205.8015-2.3886 1.5684-5.8008 1.0577-.9242-.1351-1.7831.5046-1.9182 1.4288s.5046 1.7831 1.4288 1.9182c4.6628.6978 6.3643-.4193 8.1424-1.5869 1.1024-.7239 2.247-1.4755 4.9708-1.3952.5919.0174 1.2857.0443 1.9955.0717 3.3859.1307 7.1551.2763 10.4789-.2806z"/></g></g><path id="_277879960" d="m44.5471 95.9046c-.2983-1.5599-.5666-3.2186-.7973-4.9973 2.8941-4.195 5.1857-6.8591 5.3967-12.0077-2.385-2.0823-3.8862-4.8886-4.2792-8.0331l-1.7959-14.3673c-.1132-.9278.5472-1.772 1.475-1.8852s1.772.5472 1.8852 1.475l1.7959 14.3673c.2933 2.3472 1.4208 4.3867 3.0634 5.8367 1.6403 1.4481 3.8044 2.3126 6.1736 2.3126h17.4269c.9352 0 1.6934.7582 1.6934 1.6934s-.7582 1.6934-1.6934 1.6934h-17.4269c-1.8079 0-3.5329-.3762-5.0969-1.0596-.8152 4.5176-4.6608 11.0129-7.8205 14.9718z" fill="#d08d78"/></g></g></svg>