<svg clip-rule="evenodd" fill-rule="evenodd" height="512" image-rendering="optimizeQuality" shape-rendering="geometricPrecision" text-rendering="geometricPrecision" viewBox="0 0 2000 2000" width="512" xmlns="http://www.w3.org/2000/svg"><g id="Layer_x0020_1"><path d="m735 1062c60-38 129-58 201-56 74 2 144 27 204 71 81-131 211-202 353-192 147 10 271 103 323 242 35 95 46 221 31 355-15 129-53 251-104 335-4 9-13 15-24 15h-1c-231 0-414-96-461-124-62 25-333 125-552 66-267-72-427-189-515-276-61-60-41-189-38-203 0-1 0-2 1-2l215-806c1-7 5-12 11-16l484-299c11-7 26-5 35 6l185 230c7 9 8 23 0 33l-185 242c-5 6-12 9-19 10-8 1-15-2-20-7l-96-92-78 19 46 76c3 4 4 9 4 14z" fill="#ffc06d"/><g fill="#ffa562"><path d="m1139 1076 1 1c9-16 19-31 30-44 63 63 118 131 163 202 1 2 2 4 3 7 3 11-1 23-11 29-12 8-29 5-36-8-42-65-92-127-150-187z"/><path d="m910 1615c-1 0-3 0-4 0-177-23-329-95-426-151-13-7-17-24-10-36 7-13 24-17 36-10 93 54 239 123 407 144 14 2 25 16 23 30-2 13-13 23-26 23z"/><path d="m1691 1517c-3-1-5-2-7-3-76-48-149-108-217-177-10-10-10-27 1-37 10-10 27-10 37 0 65 66 135 123 207 170 12 8 16 24 8 36-6 10-18 14-29 11z"/></g><path d="m1467 713c-14 0-26-12-26-27v-149c0-14 12-26 26-26 15 0 27 12 27 26v149c0 15-12 27-27 27z" fill="#58535a"/><path d="m1629 713c-6 0-13-3-18-8-11-10-11-27 0-37l105-105c10-11 27-11 37 0 10 10 10 27 0 37l-105 105c-5 5-12 8-19 8z" fill="#58535a"/><path d="m1305 713c-6 0-13-3-19-8l-105-105c-10-10-10-27 0-37 11-11 27-11 38 0l105 105c10 10 10 27 0 37-5 5-12 8-19 8z" fill="#58535a"/></g></svg>