<svg id="Layer_1" enable-background="new 0 0 241.443 224.981" height="512" viewBox="0 0 241.443 224.981" width="512" xmlns="http://www.w3.org/2000/svg"><g><path d="m196.928 115.584c.33-.082.667-.14 1.012-.173l4.147-.398c2.641-.253 5.086 1.004 6.476 3.063.119-.019.239-.034.36-.045l3.494-.335c3.497-.335 6.614 2.236 6.949 5.733l1.003 10.468 6.901-.661-.592-6.174 14.766-1.416-.509-5.309-14.766 1.416-1.29-13.454c-.177-1.845-1.831-3.21-3.676-3.033l-3.494.335c-.998.096-1.845.632-2.394 1.389l-.077-.807c-.21-2.19-2.173-3.81-4.364-3.6l-4.147.398c-1.251.12-2.302.822-2.946 1.802l-.093-.967c-.21-2.19-2.174-3.81-4.364-3.6l-5.641.541c-2.19.21-3.81 2.174-3.6 4.363l.721 7.519c2.485-.143 4.77 1.029 6.124 2.945z"/><path d="m50.852 168.028 2.919-.28c2.19-.21 3.81-2.173 3.6-4.363l-.235-2.453-6.901.662z"/><path d="m179.627 131.572-.509-5.309-47.069 4.513 4.028 4.971z"/><path d="m27.512 131.75c.344-.033.688-.04 1.028-.022 1-2.215 3.127-3.851 5.715-4.099l5.64-.541c3.842-.368 7.268 2.458 7.636 6.3l1.909 19.909-2.986.286-1.909-19.909c-.21-2.19-2.173-3.81-4.363-3.6l-5.641.541c-2.19.21-3.81 2.174-3.6 4.363l.093.967c-.819-.84-1.984-1.33-3.235-1.21l-4.147.398c-2.19.21-3.81 2.173-3.6 4.363l.077.807c-.683-.639-1.616-1.005-2.614-.909l-3.494.335c-1.845.177-3.21 1.831-3.033 3.676l1.29 13.454-12.278 1.177.509 5.309 12.277-1.177 1.29 13.454c.177 1.845 1.831 3.21 3.676 3.033l3.494-.335c.998-.096 1.845-.632 2.394-1.389l.077.807c.21 2.19 2.173 3.81 4.363 3.6l4.147-.398c1.251-.12 2.302-.822 2.946-1.802l.093.967c.21 2.19 2.173 3.81 4.363 3.6l5.641-.541c2.19-.21 3.81-2.173 3.6-4.363l-1.909-19.909 61.974-5.941c-.019-.054-.043-.106-.061-.161l-2.062-6.142-10.114-12.483-41.745 4.002-1.909-19.909c-.21-2.19-2.173-3.81-4.363-3.6l-5.641.541c-2.19.21-3.81 2.173-3.6 4.363l.093.967c-.819-.84-1.984-1.33-3.235-1.21l-4.147.398c-2.19.21-3.81 2.173-3.6 4.363l.077.807c-.683-.639-1.616-1.005-2.614-.909l-3.494.335c-1.845.177-3.21 1.831-3.033 3.676l.519 5.415c.963-.681 2.104-1.136 3.359-1.256zm70.195 7.676 1.439 9.106-42.805 4.104-.878-9.16z"/><path d="m117.413 159.732c-2.766-.33-5.246-1.76-6.915-3.917l-10.049.963 1.283 8.115-21.431 41.173c-3.188 6.124-.808 13.672 5.316 16.859 1.845.96 3.816 1.415 5.761 1.415 4.513 0 8.871-2.452 11.099-6.731l21.91-42.092-1.922-9.55z"/><path d="m121.918 159.275c-.522.176-1.054.307-1.593.397l4.283 5.286 10.061 49.986c1.194 5.936 6.41 10.037 12.24 10.036.817 0 1.648-.081 2.48-.248 6.768-1.362 11.149-7.953 9.787-14.721l-10.667-53c-.337-1.676-1.032-3.25-2.003-4.649l-18.682 1.791c-1.179 2.335-3.237 4.226-5.906 5.122z"/><circle cx="140.913" cy="22.5" r="22.5"/><path d="m140.28 144.589-15.579-19.23c-1.893-17.385 1.712-45.859 4.371-59.441 2.869-9.95-.885-21.862-9.42-23.991-8.537-2.127-20.912 2.508-25.947 17.15-6.805 20.173-8.268 33.306-5.682 55.521.798 4.106 2.112 7.267 3.776 9.704.267.426.553.844.877 1.244l12.041 14.862-11.176-33.286c-.607-1.813-.7-3.753-.268-5.613l9.312-39.996c1.094-4.691 5.215-7.966 10.023-7.966.785 0 1.573.091 2.345.27 5.531 1.288 8.984 6.836 7.696 12.367l-8.649 37.151 14.404 42.898c.538 1.603.65 3.246.411 4.813l55.186-5.29 1.909 19.909c.21 2.19 2.174 3.81 4.363 3.6l5.641-.541c2.19-.21 3.81-2.173 3.6-4.363l-.093-.967c.818.84 1.983 1.33 3.234 1.21l4.147-.398c2.19-.21 3.81-2.174 3.6-4.363l-.077-.807c.683.639 1.616 1.005 2.615.909l3.494-.335c1.845-.177 3.21-1.831 3.033-3.676l-1.29-13.454 14.766-1.416-.509-5.309-14.766 1.416-1.29-13.454c-.177-1.845-1.831-3.21-3.676-3.033l-3.494.335c-.998.096-1.845.632-2.394 1.389l-.077-.807c-.21-2.19-2.173-3.81-4.364-3.6l-4.147.398c-1.251.12-2.302.822-2.946 1.802l-.093-.967c-.21-2.19-2.174-3.81-4.364-3.6l-5.641.541c-2.19.21-3.81 2.173-3.6 4.363l1.909 19.909-2.987.286-37.479 3.593z"/><path d="m118.638 157.513c.844 0 1.703-.134 2.547-.418 4.188-1.406 6.444-5.942 5.038-10.13l-14.611-43.516 8.798-37.786c1.002-4.303-1.675-8.604-5.978-9.605-4.31-1.002-8.604 1.675-9.606 5.978l-9.312 39.996c-.336 1.444-.264 2.954.208 4.36l15.333 45.667c1.124 3.343 4.241 5.454 7.583 5.454z"/></g></svg>