<svg id="Capa_1" enable-background="new 0 0 512 512" height="512" viewBox="0 0 512 512" width="512" xmlns="http://www.w3.org/2000/svg"><g><path d="m158.5 273.75c-12.407 0-22.5-10.093-22.5-22.5v-45c0-12.407 10.093-20.011 22.5-20.011v12.511c-4.136 0-7.5 3.364-7.5 7.5v45c0 4.136 3.364 7.5 7.5 7.5s7.5-3.364 7.5-7.5v-30l15-7.5v37.5c0 12.407-10.093 22.5-22.5 22.5z" fill="#a45e43"/><path d="m353.5 273.75c-12.406 0-22.5-10.093-22.5-22.5v-37.5l15 7.5v30c0 4.136 3.364 7.5 7.5 7.5s7.5-3.364 7.5-7.5v-45c0-4.136-3.364-7.5-7.5-7.5v-11.584c12.406 0 22.5 6.677 22.5 19.084v45c0 12.407-10.094 22.5-22.5 22.5z" fill="#85453d"/><path d="m393.37 426.133-24.87-8.288v-76.595c0-12.407-10.094-22.5-22.5-22.5-2.042 0-4.02.279-5.902.791l-76.216 20.667 3.927 14.477 76.221-20.663c.629-.172 1.288-.271 1.97-.271 4.136 0 7.5 3.364 7.5 7.5v82c0 3.228 2.065 6.094 5.128 7.115l29.999 9.998c3.928 1.31 8.177-.814 9.487-4.744 1.309-3.93-.815-8.177-4.744-9.487z" fill="#85453d"/><path d="m118.63 426.133 24.87-8.288v-76.595c0-12.407 10.094-22.5 22.5-22.5 2.042 0 4.02.279 5.902.791l76.216 20.667-3.927 14.477-76.221-20.663c-.629-.172-1.288-.271-1.97-.271-4.136 0-7.5 3.364-7.5 7.5v82c0 3.228-2.065 6.094-5.128 7.115l-29.999 9.998c-3.928 1.31-8.177-.814-9.487-4.744-1.309-3.93.815-8.177 4.744-9.487z" fill="#a45e43"/><path d="m346 221.25c0-16.569-13.431-30-30-30h-30s-45 75-45 75 60 0 60-.031c8.964-4.993 15-14.315 15-25v-19.969z" fill="#85453d"/><path d="m226 191.25h-30c-16.569 0-30 13.431-30 30h30v19.969c0 10.685 6.036 20.007 15 25 0 .031 60 .031 60 .031z" fill="#a45e43"/><path d="m301 266.25c-8.284 0-15-6.716-15-15v-10.57h-45l15 115.57c24.853 0 45-20.147 45-45z" fill="#ffa754"/><path d="m226 191.25v60c0 8.284-6.716 15-15 15v45c0 24.853 20.147 45 45 45 8.284 0 15-20.147 15-45v-45c8.964-4.993 15-14.315 15-25v-50z" fill="#ffcb63"/><path d="m256 71.25v90c24.853 0 45-20.147 45-45s-20.147-45-45-45z" fill="#85453d"/><path d="m271 116.25c0-24.853-6.716-45-15-45-24.853 0-45 20.147-45 45s20.147 45 45 45c8.284 0 15-20.147 15-45z" fill="#a45e43"/><path d="m504.5 183.75h-23.5v15h23.5c4.143 0 7.5-3.358 7.5-7.5s-3.357-7.5-7.5-7.5z" fill="#808080"/><path d="m7.5 183.75c-4.143 0-7.5 3.358-7.5 7.5s3.357 7.5 7.5 7.5h443.5v-15z" fill="#999"/><path d="m16 221.25v30c0 8.284 6.716 15 15 15s15-6.716 15-15l15-30z" fill="#4f4f4f"/><path d="m46 131.25c0-8.284-6.716-15-15-15s-15 6.716-15 15v90c0 8.284 6.716 15 15 15s15-6.716 15-15h15z" fill="#696969"/><path d="m46 221.25v30c0 8.284 6.716 15 15 15s15-6.716 15-15v-30z" fill="#353535"/><path d="m61 116.25c-8.284 0-15 6.716-15 15v90c0 8.284 6.716 15 15 15s15-6.716 15-15v-90c0-8.284-6.716-15-15-15z" fill="#4f4f4f"/><path d="m436 221.25v30c0 8.284 6.716 15 15 15s15-6.716 15-15l15-30z" fill="#353535"/><path d="m466 131.25c0-8.284-6.716-15-15-15s-15 6.716-15 15v90c0 8.284 6.716 15 15 15s15-6.716 15-15h15z" fill="#696969"/><path d="m466 221.25v30c0 8.284 6.716 15 15 15s15-6.716 15-15v-30z" fill="#353535"/><path d="m481 116.25c-8.284 0-15 6.716-15 15v90c0 8.284 6.716 15 15 15s15-6.716 15-15v-90c0-8.284-6.716-15-15-15z" fill="#4f4f4f"/></g></svg>