<svg id="Layer_1" enable-background="new 0 0 331.099 195.963" height="512" viewBox="0 0 331.099 195.963" width="512" xmlns="http://www.w3.org/2000/svg"><g><path d="m72.393 165.305-.633-3.222-16.563 3.255c-2.583-2.973-6.378-4.869-10.602-4.869-7.733 0-14.06 6.327-14.06 14.06v7.799h-30.535v13.636h64.582v-13.636h-5.928v-5.311l15.444-3.035-.633-3.222 129.265-25.403-.267-5.612zm-27.799 2.927c2.897 0 5.246 2.349 5.246 5.246s-2.349 5.246-5.246 5.246-5.246-2.349-5.246-5.246 2.349-5.246 5.246-5.246z"/><path d="m330.027 114.674-30.181 5.931-2.083-10.597-6.693 1.315-2.683-13.651c-.332-1.689-2.37-2.724-4.528-2.3l-.702.138c-2.159.424-3.653 2.153-3.321 3.842l4.765 24.248-17.134 3.367-4.672-30.537 4.996-34.082c1.271-5.557.275-10.909-2.115-14.747-4.649-7.467-17.138-7.375-25.726-1.584-12.475 6.912-30.083 17.711-47.15 20.805-6.161 1.597-9.444 3.337-10.943 5.584-3.605 3.89-4.462 9.806-1.705 14.663l16.825 29.633 8.07 14.213 2.51 52.714c.319 6.693 5.846 11.906 12.477 11.906.2 0 .402-.005.604-.015 6.896-.329 12.22-6.185 11.892-13.081l-2.652-55.695c-.094-1.96-.647-3.871-1.616-5.577l-8.217-14.473-4.894-8.619c8.336-2.065 15.248-4.492 21.912-7.768l4.623-31.535c.735-5.021 5.112-8.807 10.18-8.807.5 0 1.006.037 1.503.109 2.724.399 5.128 1.835 6.771 4.042s2.327 4.922 1.928 7.644l-5.082 34.662 5.073 33.148c.561 3.667-.903 7.177-3.545 9.416.485.093.983.143 1.49.143.402 0 .81-.03 1.22-.093 3.468-.531 6.066-3.217 6.657-6.487l17.796-3.497 4.765 24.248c.332 1.689 2.37 2.724 4.528 2.299l.702-.138c2.159-.424 3.653-2.153 3.321-3.842l-2.683-13.651 6.693-1.315-2.083-10.597 30.181-5.931z"/><path d="m241.595 132.053-8.384 1.648.267 5.612 10.187-2.002c-1.006-1.326-1.709-2.898-1.973-4.622z"/><path d="m261.461 39.385c23.775 17.402 50.232-9.061 32.83-32.831-.258-.353-.576-.671-.929-.93-23.772-17.426-50.257 9.053-32.831 32.831.259.354.577.672.93.93z"/><path d="m259.782 129.921-5.125-33.489 5.132-35.003c.642-4.372-2.383-8.435-6.755-9.076-4.382-.64-8.435 2.384-9.075 6.755l-5.48 37.377 5.487 35.857c.605 3.958 4.015 6.791 7.898 6.791.402 0 .81-.03 1.22-.093 4.367-.669 7.366-4.752 6.698-9.119z"/></g></svg>