<svg id="Capa_1" enable-background="new 0 0 512 512" height="512" viewBox="0 0 512 512" width="512" xmlns="http://www.w3.org/2000/svg"><g><path d="m7.5 71.249c-4.143 0-7.5 3.357-7.5 7.5s3.357 7.5 7.5 7.5h436v-15z" fill="#999"/><path d="m173.5 71.249c-4.143 0-7.5 3.357-7.5 7.5v120l15 30v-150c0-4.143-3.357-7.5-7.5-7.5z" fill="#c27749"/><path d="m338.5 71.249c-4.143 0-7.5 3.357-7.5 7.5v150l15-30v-120c0-4.143-3.357-7.5-7.5-7.5z" fill="#a45e43"/><path d="m504.5 71.249h-23.5v15h23.5c4.143 0 7.5-3.357 7.5-7.5s-3.357-7.5-7.5-7.5z" fill="#808080"/><path d="m316 228.749h-30l-30 75s45 0 45-.031c8.964-4.993 15-14.315 15-25v-19.969c16.569 0 30-13.431 30-30v-30c-16.569 0-30 13.431-30 30z" fill="#a45e43"/><path d="m226 228.749h-30c0-16.569-13.431-30-30-30v30c0 16.569 13.431 30 30 30v19.969c0 10.685 6.036 20.007 15 25 0 .031 45 .031 45 .031z" fill="#c27749"/><path d="m286 288.749v-10.57h-45l15 100.57h45v-75c-8.284 0-15-6.716-15-15z" fill="#ccc"/><path d="m301 333.751c-16.569 0-30 13.431-30 30l30 15 30-15c0-16.569-13.431-30-30-30z" fill="#a45e43"/><path d="m226 228.749v60c0 8.284-6.716 15-15 15v75h60v-75c8.964-4.993 15-14.315 15-25v-50z" fill="#ebebeb"/><path d="m211 333.751c-16.569 0-30 13.431-30 30l30 15 30-15c0-16.569-13.431-30-30-30z" fill="#c27749"/><path d="m256 108.749v90c24.853 0 45-20.147 45-45s-20.147-45-45-45z" fill="#a45e43"/><path d="m271 153.749c0-24.853-6.716-45-15-45-24.853 0-45 20.147-45 45s20.147 45 45 45c8.284 0 15-20.147 15-45z" fill="#c27749"/><path d="m16 108.749v30c0 8.284 6.716 15 15 15s15-6.716 15-15l15-30z" fill="#4f4f4f"/><path d="m46 18.749c0-8.284-6.716-15-15-15s-15 6.716-15 15v90c0 8.284 6.716 15 15 15s15-6.716 15-15h15z" fill="#696969"/><path d="m46 108.749v30c0 8.284 6.716 15 15 15s15-6.716 15-15v-30z" fill="#353535"/><path d="m61 3.749c-8.284 0-15 6.716-15 15v90c0 8.284 6.716 15 15 15s15-6.716 15-15v-90c0-8.284-6.716-15-15-15z" fill="#4f4f4f"/><path d="m436 108.749v30c0 8.284 6.716 15 15 15s15-6.716 15-15l15-30z" fill="#4f4f4f"/><path d="m466 18.749c0-8.284-6.716-15-15-15s-15 6.716-15 15v90c0 8.284 6.716 15 15 15s15-6.716 15-15h15z" fill="#696969"/><path d="m466 108.749v30c0 8.284 6.716 15 15 15s15-6.716 15-15v-30z" fill="#353535"/><path d="m481 3.749c-8.284 0-15 6.716-15 15v90c0 8.284 6.716 15 15 15s15-6.716 15-15v-90c0-8.284-6.716-15-15-15z" fill="#4f4f4f"/><path d="m241 500.749h30v-30l-15-15-15 15z" fill="#b3b3b3"/><path d="m241 378.749h30v92h-30z" fill="#ccc"/><path d="m346 363.749h-60v30h60c8.284 0 15-6.716 15-15s-6.716-15-15-15z" fill="#353535"/><path d="m301 378.749c0-8.284-6.716-15-15-15h-120c-8.284 0-15 6.716-15 15s6.716 15 15 15h120c8.284 0 15-6.716 15-15z" fill="#4f4f4f"/><path d="m91 500.749h30v-30l-15-15-15 15z" fill="#b3b3b3"/><path d="m106 183.749c-8.284 0-15 6.716-15 15v45h30v-45c0-8.284-6.716-15-15-15z" fill="#999"/><path d="m91 470.749h30v-92l-15-15-15 15z" fill="#ccc"/><path d="m106 228.749c-8.284 0-15 6.716-15 15v135h30v-135c0-8.284-6.716-15-15-15z" fill="#ebebeb"/><path d="m391 500.749h30v-30l-15-15-15 15z" fill="#999"/><path d="m406 183.749c-8.284 0-15 6.716-15 15v45h30v-45c0-8.284-6.716-15-15-15z" fill="#808080"/><path d="m391 470.749h30v-92l-15-15-15 15z" fill="#b3b3b3"/><path d="m406 228.749c-8.284 0-15 6.716-15 15v135h30v-135c0-8.284-6.716-15-15-15z" fill="#ccc"/><path d="m181 363.749v107.23l-13.208 26.416c-1.853 3.705-.351 8.21 3.354 10.063 3.705 1.854 8.21.352 10.062-3.354l14-28c.521-1.042.792-2.19.792-3.354v-124z" fill="#c27749"/><path d="m331 363.749v107.229l13.208 26.416c1.853 3.705.351 8.21-3.354 10.063-3.705 1.854-8.21.352-10.062-3.354l-14-28c-.521-1.042-.792-2.19-.792-3.354v-124z" fill="#a45e43"/></g></svg>