<svg id="Layer_1" enable-background="new 0 0 342.568 442.875" height="512" viewBox="0 0 342.568 442.875" width="512" xmlns="http://www.w3.org/2000/svg"><g><path d="m106.55 74.442h-48.986v-35.81c0-4.802-2.594-9.016-6.442-11.344v-27.288h-13.642v27.288c-3.848 2.328-6.442 6.543-6.442 11.344v35.81h-31.038v6.063h31.038v35.811c0 4.801 2.594 9.016 6.442 11.344v305.099h-29.424v10.116h72.49v-10.116h-29.424v-305.099c3.848-2.328 6.442-6.543 6.442-11.344v-35.811h48.926l-.159-3.49c-.04-.884.045-1.744.219-2.573zm-67.744-33.189c0-3.035 2.46-5.495 5.495-5.495s5.495 2.46 5.495 5.495-2.46 5.495-5.495 5.495-5.495-2.461-5.495-5.495zm10.99 72.442c0 3.035-2.46 5.495-5.495 5.495s-5.495-2.46-5.495-5.495 2.46-5.495 5.495-5.495 5.495 2.46 5.495 5.495z"/><path d="m127.112 80.505h8.126l5.544-6.063h-14.087c.11.533.19 1.077.216 1.638z"/><path d="m215.456 80.505.201-4.426c.026-.56.106-1.105.216-1.637h-14.088l5.544 6.063z"/><path d="m236.079 80.505h48.926v35.811c0 4.801 2.594 9.016 6.442 11.344v305.099h-29.424v10.116h72.49v-10.116h-29.423v-305.099c3.848-2.328 6.442-6.543 6.442-11.344v-35.811h31.038v-6.063h-31.038v-35.81c0-4.802-2.594-9.016-6.442-11.344v-27.288h-13.642v27.288c-3.848 2.328-6.442 6.543-6.442 11.344v35.81h-48.986c.174.829.259 1.689.219 2.573zm67.683 33.19c0 3.035-2.46 5.495-5.495 5.495s-5.495-2.46-5.495-5.495 2.46-5.495 5.495-5.495 5.495 2.46 5.495 5.495zm-10.989-72.442c0-3.035 2.46-5.495 5.495-5.495s5.495 2.46 5.495 5.495-2.46 5.495-5.495 5.495-5.495-2.461-5.495-5.495z"/><path d="m46.512 41.253c0-1.221-.99-2.211-2.211-2.211s-2.21.99-2.21 2.211.99 2.211 2.21 2.211c1.221-.001 2.211-.99 2.211-2.211z"/><path d="m42.091 113.695c0 1.221.99 2.211 2.21 2.211 1.221 0 2.211-.99 2.211-2.211s-.99-2.211-2.211-2.211-2.21.99-2.21 2.211z"/><path d="m300.478 41.253c0-1.221-.99-2.211-2.211-2.211s-2.21.99-2.21 2.211.99 2.211 2.21 2.211c1.221-.001 2.211-.99 2.211-2.211z"/><path d="m296.057 113.695c0 1.221.99 2.211 2.21 2.211 1.221 0 2.211-.99 2.211-2.211s-.99-2.211-2.211-2.211c-1.22 0-2.21.99-2.21 2.211z"/><path d="m193.784 51.174c0-12.427-10.072-22.5-22.5-22.5-12.426 0-22.5 10.073-22.5 22.5 0 6.961 3.162 13.182 8.126 17.309h28.748c4.964-4.128 8.126-10.349 8.126-17.309z"/><path d="m165.984 273.921c.802 0 1.595-.087 2.372-.241-2.345-1.61-4.214-3.914-5.309-6.713l-6.143-15.709-2.326 5.948c-2.464 6.301.647 13.406 6.948 15.87 1.465.573 2.974.845 4.458.845z"/><path d="m141.255 204.925 23.934 61.204c1.892 4.835 6.516 7.792 11.412 7.792 1.484 0 2.993-.272 4.458-.845 6.301-2.464 9.412-9.569 6.948-15.87l-22.924-58.62 2.151-29.59.877-12.064.167-2.3h6.027l.167 2.3 3.029 41.653-4.975 12.721 13.154 33.637 15.649-40.019c.665-1.701.941-3.529.809-5.35l-3.406-46.826-.413-5.674c.001-.057.009-.113.009-.17v-49.122l19.998 21.869c1.544 1.688 3.7 2.602 5.906 2.602.912 0 1.833-.157 2.724-.479 3.041-1.102 5.119-3.927 5.267-7.158l1.716-37.705c.2-4.414-3.215-8.155-7.629-8.355-4.409-.215-8.154 3.215-8.355 7.628l-.838 18.433-19.371-21.184c-1.656-1.812-3.955-2.684-6.23-2.592-.301-.036-.604-.059-.915-.059h-38.635c-.312 0-.616.024-.918.06-2.273-.09-4.569.781-6.226 2.591l-19.371 21.184-.838-18.433c-.2-4.413-3.926-7.839-8.355-7.628-4.414.201-7.829 3.942-7.629 8.355l1.716 37.705c.147 3.231 2.226 6.056 5.267 7.158.891.323 1.812.479 2.724.479 2.206 0 4.362-.914 5.906-2.602l19.996-21.868v49.12c0 .106.012.209.016.313l-.404 5.553-1.181 16.238-2.223 30.568c-.133 1.821.144 3.649.809 5.35z"/></g></svg>