<svg id="Capa_1" enable-background="new 0 0 512 512" height="512" viewBox="0 0 512 512" width="512" xmlns="http://www.w3.org/2000/svg"><g><path d="m218.5 288.75v196.592l-24.87 8.29c-3.93 1.31-6.053 5.557-4.744 9.487 1.31 3.93 5.559 6.054 9.487 4.744l29.998-10c3.063-1.021 5.128-3.887 5.128-7.115v-201.998z" fill="#ffa754"/><path d="m293.5 288.75v196.592l24.87 8.29c3.93 1.31 6.053 5.557 4.744 9.487-1.31 3.93-5.559 6.054-9.487 4.744l-29.998-10c-3.063-1.021-5.128-3.887-5.128-7.115v-201.998z" fill="#e18f4e"/><path d="m241 48.75h30c8.284 0 15-6.716 15-15 0-16.569-13.431-30-30-30s-30 13.431-30 30c0 8.284 6.716 15 15 15z" fill="#4f4f4f"/><path d="m284.283 58.756h-28.283v79.992c24.853 0 45-20.147 45-45 0-14.135-6.523-26.742-16.717-34.992z" fill="#e18f4e"/><path d="m269.701 75.434-41.984-16.678c-10.194 8.25-16.717 20.857-16.717 34.992 0 24.853 20.147 45 45 45 8.284 0 15-20.147 15-45 0-6.524-.467-12.718-1.299-18.314z" fill="#ffa754"/><path d="m256 48.748v26.686h13.701c6.754-3.473 12.02-9.436 14.583-16.678-7.73-6.255-17.566-10.008-28.284-10.008z" fill="#353535"/><path d="m256 48.748c-10.718 0-20.554 3.753-28.283 10.008 4.121 11.646 15.225 19.992 28.283 19.992 4.938 0 9.593-1.2 13.701-3.314-2.339-15.722-7.592-26.686-13.701-26.686z" fill="#4f4f4f"/><path d="m316 168.75h-30s-45 75-45 75 60 0 60-.031c8.964-4.993 15-14.315 15-25v-19.969h30c0-16.569-13.431-30-30-30z" fill="#e18f4e"/><path d="m226 168.75h-30c-16.569 0-30 13.431-30 30h30v19.969c0 10.685 6.036 20.007 15 25 0 .031 60 .031 60 .031z" fill="#ffa754"/><path d="m301 288.75v-45c-8.284 0-15-6.716-15-15v-10.57h-45l15 115.57c24.853 0 45-20.147 45-45z" fill="#ccc"/><path d="m226 168.75v60c0 8.284-6.716 15-15 15v45c0 24.853 20.147 45 45 45 8.284 0 15-20.147 15-45v-45c8.964-4.993 15-14.315 15-25v-50z" fill="#ebebeb"/><path d="m504.5 326.25h-23.5v15h23.5c4.143 0 7.5-3.358 7.5-7.5s-3.357-7.5-7.5-7.5z" fill="#808080"/><path d="m7.5 326.25c-4.143 0-7.5 3.358-7.5 7.5s3.357 7.5 7.5 7.5h443.5v-15z" fill="#999"/><path d="m16 363.75v30c0 8.284 6.716 15 15 15s15-6.716 15-15l15-30z" fill="#ff4128"/><path d="m46 273.75c0-8.284-6.716-15-15-15s-15 6.716-15 15v90c0 8.284 6.716 15 15 15s15-6.716 15-15h15z" fill="#ff6337"/><path d="m46 363.75v30c0 8.284 6.716 15 15 15s15-6.716 15-15v-30z" fill="#eb1b00"/><path d="m61 258.75c-8.284 0-15 6.716-15 15v90c0 8.284 6.716 15 15 15s15-6.716 15-15v-90c0-8.284-6.716-15-15-15z" fill="#ff4128"/><path d="m436 363.75v30c0 8.284 6.716 15 15 15s15-6.716 15-15l15-30z" fill="#ff4128"/><path d="m466 273.75c0-8.284-6.716-15-15-15s-15 6.716-15 15v90c0 8.284 6.716 15 15 15s15-6.716 15-15h15z" fill="#ff6337"/><path d="m466 363.75v30c0 8.284 6.716 15 15 15s15-6.716 15-15v-30z" fill="#eb1b00"/><path d="m481 258.75c-8.284 0-15 6.716-15 15v90c0 8.284 6.716 15 15 15s15-6.716 15-15v-90c0-8.284-6.716-15-15-15z" fill="#ff4128"/><path d="m166 198.75v135c0 4.142 3.357 7.5 7.5 7.5s7.5-3.358 7.5-7.5v-142.5z" fill="#ffa754"/><path d="m331 191.25v142.5c0 4.142 3.357 7.5 7.5 7.5s7.5-3.358 7.5-7.5v-135z" fill="#e18f4e"/></g></svg>