<svg id="Layer_1" enable-background="new 0 0 173.108 330.222" height="512" viewBox="0 0 173.108 330.222" width="512" xmlns="http://www.w3.org/2000/svg"><g><path d="m132.769 241.565c1.964 1.049 3.668 2.516 5 4.284v-93.062l-5 8.31z"/><path d="m41.237 241.565v-80.469l-5-8.31v93.063c1.333-1.767 3.037-3.234 5-4.284z"/><path d="m38.88 74.903c.781-.303 1.567-.587 2.358-.853v-48.174c0-4.99 2.645-9.362 6.597-11.824 1.534 3.68 5.171 6.285 9.39 6.285h18.41v50.906h9.368v-16.579c-1.476-.738-2.499-2.249-2.499-4.011s1.023-3.273 2.499-4.011v-25.926h4v25.925c1.477.738 2.501 2.249 2.501 4.012s-1.024 3.274-2.501 4.012v16.578h9.369v-50.906h18.411c4.219 0 7.856-2.605 9.39-6.285 3.953 2.462 6.598 6.834 6.598 11.824v48.174c.791.266 1.577.55 2.358.853l.023.009c.798-.614 1.677-1.122 2.619-1.501v-47.535c0-7.578-4.486-14.112-10.932-17.136-.703-4.921-4.95-8.74-10.057-8.74h-59.558c-5.107 0-9.354 3.819-10.055 8.741-6.446 3.023-10.932 9.557-10.932 17.135v47.538c.941.379 1.819.886 2.617 1.499zm80.105-64.735c0 2.327-1.886 4.213-4.213 4.213s-4.213-1.886-4.213-4.213 1.886-4.213 4.213-4.213c2.327.001 4.213 1.887 4.213 4.213zm-59.751-4.212c2.327 0 4.213 1.886 4.213 4.213s-1.886 4.213-4.213 4.213-4.213-1.886-4.213-4.213 1.886-4.213 4.213-4.213z"/><path d="m62.514 22.611h3v48.632h-3z"/><path d="m65.514 277.918h-3v.417h-3.858l-1.107 4.769v2.217h4.965v4.252h-4.965v6.985h4.965v4.252h-4.965v6.985h4.965v8.379l3-.236v-8.143h11.359v-6.985h-11.359v-4.252h11.359v-6.985h-11.359v-4.252h11.359v-6.986h-11.359z"/><path d="m108.493 22.611h3v48.632h-3z"/><path d="m108.493 316.009 3 .236v-8.45h4.066v-6.985h-4.066v-4.252h4.066v-6.985h-4.066v-4.252h4.066v-6.089l-.208-.897h-3.858v-.417h-3v.417h-12.258v6.986h12.258v4.252h-12.258v6.985h12.258v4.252h-12.258v6.985h12.258z"/><path d="m142.179 326.46c-1.135.263-2.299.397-3.458.398h-.002c-4.807 0-9.143-2.214-11.955-5.785l-34.136-2.42v-44.342h20.122c.558 0 1.099-.073 1.621-.197l-1.396-6.013-24.139-4.683c-.619-.12-1.231-.279-1.832-.475-.602.196-1.215.355-1.833.475l-24.139 4.683-1.432 6.167c.25.027.502.043.758.043h20.122v44.342l-33.182 2.353c-2.81 3.611-7.173 5.853-12.011 5.853-1.157 0-2.32-.134-3.459-.398-2.715-.63-5.139-1.972-7.096-3.855l-24.732 1.753v5.863h173.108v-5.863l-23.895-1.694c-1.947 1.851-4.348 3.171-7.034 3.795z"/><path d="m109.503 149.701c0-12.427-10.072-22.5-22.5-22.5-12.426 0-22.5 10.073-22.5 22.5 0 7.502 3.675 14.141 9.319 18.229h26.364c5.643-4.087 9.317-10.727 9.317-18.229z"/><path d="m152.7 85.272-.613 4.043 8.912 3.458 1.809-4.662-10.001-3.881c-.02.347-.054.694-.107 1.042z"/><path d="m21.201 84.23-10.001 3.881 1.809 4.662 8.912-3.458-.613-4.043c-.053-.348-.088-.695-.107-1.042z"/><path d="m42.905 81.208c3.487-1.23 7.08-2.038 10.741-2.413 1.586-.162 3.183-.252 4.791-.252h4.076v64.069c.685-2.363 1.703-4.584 3-6.611v-57.459h10.121v48.343c3.426-1.714 7.285-2.684 11.368-2.684 4.084 0 7.943.97 11.369 2.684v-48.343h10.121v57.458c1.297 2.028 2.315 4.249 3 6.612v-64.07h4.078c1.608 0 3.205.09 4.791.252 3.66.375 7.253 1.184 10.74 2.413.382-1.689 1.148-3.227 2.204-4.519-5.698-2.079-11.656-3.147-17.735-3.147h-57.133c-6.081 0-12.04 1.068-17.738 3.148 1.057 1.292 1.824 2.831 2.206 4.519z"/><path d="m113.078 10.168c0 .936.759 1.695 1.695 1.695s1.695-.759 1.695-1.695-.759-1.695-1.695-1.695-1.695.759-1.695 1.695z"/><path d="m57.539 10.168c0 .936.759 1.695 1.695 1.695s1.695-.759 1.695-1.695-.759-1.695-1.695-1.695-1.695.759-1.695 1.695z"/><path d="m32.506 323.538c.933.216 1.864.32 2.781.32 5.569 0 10.608-3.824 11.922-9.483l11.341-48.848 26.05-5.054c.841-.163 1.644-.41 2.404-.728.76.318 1.563.564 2.403.728l26.05 5.054 11.34 48.848c1.313 5.659 6.352 9.483 11.922 9.483.917 0 1.85-.104 2.781-.32 6.59-1.53 10.692-8.112 9.162-14.703l-13.137-56.59c-1.093-4.709-4.854-8.335-9.6-9.256l-13.877-2.692v-53.906l26.293-43.699c.54-.896.898-1.89 1.055-2.924l8.337-54.947c.663-4.368-2.341-8.447-6.709-9.109-4.369-.669-8.447 2.341-9.109 6.709l-8.1 53.381-21.136 35.129h-35.352l-21.136-35.129-8.1-53.381c-.662-4.368-4.742-7.371-9.109-6.709-4.368.662-7.372 4.741-6.709 9.109l8.337 54.947c.156 1.034.515 2.027 1.055 2.924l26.292 43.697v53.907l-13.876 2.692c-4.746.921-8.507 4.547-9.6 9.256l-13.138 56.59c-1.529 6.591 2.573 13.174 9.163 14.704z"/></g></svg>