<svg id="Capa_1" enable-background="new 0 0 504.5 504.5" height="512" viewBox="0 0 504.5 504.5" width="512" xmlns="http://www.w3.org/2000/svg"><g><path d="m214.75 285v196.592l-24.87 8.29c-3.93 1.31-6.053 5.557-4.744 9.487 1.31 3.93 5.559 6.054 9.487 4.744l29.998-10c3.063-1.021 5.128-3.887 5.128-7.115v-201.998z" fill="#fff0d3"/><path d="m289.75 285v196.592l24.87 8.29c3.93 1.31 6.053 5.557 4.744 9.487-1.31 3.93-5.559 6.054-9.487 4.744l-29.998-10c-3.063-1.021-5.128-3.887-5.128-7.115v-201.998z" fill="#ffd9d4"/><path d="m124.75 82.5h-15v-52.5c0-4.136-3.364-7.5-7.5-7.5h-15c-4.136 0-7.5 3.364-7.5 7.5v52.5h-15v-52.5c0-12.407 10.094-22.5 22.5-22.5h15c12.406 0 22.5 10.093 22.5 22.5z" fill="#ccc"/><path d="m439.75 82.5h-15v-52.5c0-4.136-3.364-7.5-7.5-7.5h-15c-4.136 0-7.5 3.364-7.5 7.5v52.5h-15v-52.5c0-12.407 10.094-22.5 22.5-22.5h15c12.406 0 22.5 10.093 22.5 22.5z" fill="#ccc"/><path d="m357.25 7.5c-12.406 0-22.5 10.093-22.5 22.5v125c0 12.407-10.094 22.5-22.5 22.5h-60v15h60c20.678 0 37.5-16.822 37.5-37.5v-125c0-4.136 3.364-7.5 7.5-7.5 4.143 0 7.5-3.358 7.5-7.5s-3.357-7.5-7.5-7.5z" fill="#ffd9d4"/><path d="m192.25 177.5c-12.406 0-22.5-10.093-22.5-22.5v-125c0-12.407-10.094-22.5-22.5-22.5-4.143 0-7.5 3.358-7.5 7.5s3.357 7.5 7.5 7.5c4.136 0 7.5 3.364 7.5 7.5v125c0 20.678 16.822 37.5 37.5 37.5h60v-15z" fill="#fff0d3"/><path d="m297.25 239.969c8.964-4.993 15-14.315 15-25v-30c0-10.842-8.632-19.647-19.396-19.969h-10.604l-45 75s60 0 60-.031z" fill="#ffd9d4"/><path d="m207.25 239.969c-8.964-4.993-15-14.315-15-25v-30c0-10.842 8.632-19.647 19.396-19.969h10.604l45 75s-60 0-60-.031z" fill="#fff0d3"/><path d="m297.25 285v-45c-8.284 0-15-6.716-15-15v-10.57h-45l15 115.57c24.853 0 45-20.147 45-45z" fill="#353535"/><path d="m222.25 195v30c0 8.284-6.716 15-15 15v45c0 24.853 20.147 45 45 45 8.284 0 15-20.147 15-45v-45c8.964-4.993 15-14.315 15-25v-20z" fill="#4f4f4f"/><path d="m282.25 195v-30h-60v30l30 15z" fill="#ff4128"/><path d="m274.75 15c-.427 0-.851.015-1.273.038-3.078-8.758-11.417-15.038-21.227-15.038s-18.149 6.28-21.227 15.038c-.422-.023-.846-.038-1.273-.038-12.426 0-22.5 10.074-22.5 22.5v52.5h90v-52.5c0-12.426-10.074-22.5-22.5-22.5z" fill="#ffe2a8"/><path d="m252.25 45v90c24.853 0 45-20.147 45-45s-20.147-45-45-45z" fill="#ffd9d4"/><path d="m267.25 90c0-24.853-6.716-45-15-45-24.853 0-45 20.147-45 45s20.147 45 45 45c8.284 0 15-20.147 15-45z" fill="#fff0d3"/><path d="m94.75 45v75c20.711 0 37.5-16.789 37.5-37.5s-16.789-37.5-37.5-37.5z" fill="#353535"/><path d="m102.25 82.5c0-20.711-3.358-37.5-7.5-37.5-20.711 0-37.5 16.789-37.5 37.5s16.789 37.5 37.5 37.5c4.142 0 7.5-16.789 7.5-37.5z" fill="#4f4f4f"/><path d="m409.75 45v75c20.711 0 37.5-16.789 37.5-37.5s-16.789-37.5-37.5-37.5z" fill="#353535"/><path d="m417.25 82.5c0-20.711-3.358-37.5-7.5-37.5-20.711 0-37.5 16.789-37.5 37.5s16.789 37.5 37.5 37.5c4.142 0 7.5-16.789 7.5-37.5z" fill="#4f4f4f"/></g></svg>